SplineFontDB: 3.2
FontName: UnicodiaSesh
FullName: UnicodiaSesh
FamilyName: UnicodiaSesh
Weight: Regular
Copyright: Glyphs taken from JSesh
UComments: "2024-9-29: Created with FontForge (http://fontforge.org)"
Version: 3.0.5
ItalicAngle: 0
UnderlinePosition: -100
UnderlineWidth: 50
Ascent: 800
Descent: 200
InvalidEm: 0
LayerCount: 2
Layer: 0 0 "+BBcEMAQ0BD0EOAQ5 +BD8EOwQwBD0A" 1
Layer: 1 0 "+BB8ENQRABDUENAQ9BDgEOQAA +BD8EOwQwBD0A" 0
XUID: [1021 59 1751208496 7093]
FSType: 0
OS2Version: 0
OS2_WeightWidthSlopeOnly: 0
OS2_UseTypoMetrics: 1
CreationTime: 1727638123
ModificationTime: 1764967296
PfmFamily: 17
TTFWeight: 400
TTFWidth: 5
LineGap: 90
VLineGap: 0
OS2TypoAscent: 1000
OS2TypoAOffset: 0
OS2TypoDescent: -200
OS2TypoDOffset: 0
OS2TypoLinegap: 90
OS2WinAscent: 1000
OS2WinAOffset: 0
OS2WinDescent: 270
OS2WinDOffset: 0
HheadAscent: 0
HheadAOffset: 1
HheadDescent: 0
HheadDOffset: 1
OS2CapHeight: 714
OS2XHeight: 536
OS2Vendor: 'PfEd'
OS2UnicodeRanges: 00000000.02000000.00000000.00000000
Lookup: 1 0 0 "Dmg dotc table" { "Dotc"  } []
Lookup: 5 8 0 "Dmg ctx" { "Dotc1"  } ['rclt' ('DFLT' <'dflt' > 'egyp' <'dflt' > ) ]
Lookup: 260 0 0 "Egyp centre mark" { "Egyp centre mark-1"  } ['mark' ('DFLT' <'dflt' > 'egyp' <'dflt' > ) ]
MarkAttachClasses: 1
DEI: 91125
ContextSub2: coverage "Dotc1" 0 0 0 1
 2 0 0
  Coverage: 9 Stub.Dotc
  Coverage: 179 Stub.Dmg.01 Stub.Dmg.02 Stub.Dmg.03 Stub.Dmg.04 Stub.Dmg.05 Stub.Dmg.06 Stub.Dmg.07 Stub.Dmg.08 Stub.Dmg.09 Stub.Dmg.10 Stub.Dmg.11 Stub.Dmg.12 Stub.Dmg.13 Stub.Dmg.14 Stub.Dmg.15
 1
  SeqLookup: 1 "Dmg dotc table"
EndFPST
GaspTable: 1 65535 15 1
Encoding: Custom
UnicodeInterp: none
NameList: AGL For New Fonts
DisplaySize: -48
AntiAlias: 1
FitToEm: 0
WinInfo: 0 33 14
BeginPrivate: 0
EndPrivate
AnchorClass2: "Centre" "Egyp centre mark-1"
BeginChars: 56 56

StartChar: Part.Stick.9
Encoding: 7 -1 3
Width: 100
Flags: HW
LayerCount: 2
Fore
SplineSet
0 290 m 1
 60 290 l 1
 60 0 l 1
 0 0 l 1
 0 290 l 1
0 645 m 1
 60 645 l 1
 60 355 l 1
 0 355 l 1
 0 645 l 1
0 1000 m 1
 60 1000 l 1
 60 710 l 1
 0 710 l 1
 0 1000 l 1
EndSplineSet
Validated: 1
EndChar

StartChar: Lost.Full
Encoding: 3 78915 4
Width: 1150
VWidth: 1850
Flags: HW
LayerCount: 2
Fore
SplineSet
68.1796875 925 m 1
 131.8203125 925 l 1
 50 843.1796875 l 1
 50 906.8203125 l 1
 68.1796875 925 l 1
268.1796875 925 m 1
 331.8203125 925 l 1
 50 643.1796875 l 1
 50 706.8203125 l 1
 268.1796875 925 l 1
468.1796875 925 m 1
 531.8203125 925 l 1
 50 443.1796875 l 1
 50 506.8203125 l 1
 468.1796875 925 l 1
668.1796875 925 m 1
 731.8203125 925 l 1
 50 243.1796875 l 1
 50 306.8203125 l 1
 668.1796875 925 l 1
868.1796875 925 m 1
 931.8203125 925 l 1
 50 43.1796875 l 1
 50 106.8203125 l 1
 868.1796875 925 l 1
1068.1796875 925 m 1
 1100 925 l 1
 1100 893.1796875 l 1
 81.8203125 -125 l 1
 50 -125 l 1
 50 -93.1796875 l 1
 1068.1796875 925 l 1
1100 756.8203125 m 1
 1100 693.1796875 l 1
 281.8203125 -125 l 1
 218.1796875 -125 l 1
 1100 756.8203125 l 1
1100 556.8203125 m 1
 1100 493.1796875 l 1
 481.8203125 -125 l 1
 418.1796875 -125 l 1
 1100 556.8203125 l 1
1100 356.8203125 m 1
 1100 293.1796875 l 1
 681.8203125 -125 l 1
 618.1796875 -125 l 1
 1100 356.8203125 l 1
1100 156.8203125 m 1
 1100 93.1796875 l 1
 881.8203125 -125 l 1
 818.1796875 -125 l 1
 1100 156.8203125 l 1
1100 -43.1796875 m 1
 1100 -106.8203125 l 1
 1081.8203125 -125 l 1
 1018.1796875 -125 l 1
 1100 -43.1796875 l 1
EndSplineSet
Validated: 524289
EndChar

StartChar: Lost.Half
Encoding: 4 78916 5
Width: 625
Flags: HW
LayerCount: 2
Fore
SplineSet
143.1796875 525 m 1
 206.8203125 525 l 1
 50 368.1796875 l 1
 50 431.8203125 l 1
 143.1796875 525 l 1
343.1796875 525 m 1
 406.8203125 525 l 1
 50 168.1796875 l 1
 50 231.8203125 l 1
 343.1796875 525 l 1
543.1796875 525 m 1
 575 525 l 1
 575 493.1796875 l 1
 81.8203125 0 l 1
 50 0 l 1
 50 31.8203125 l 1
 543.1796875 525 l 1
575 356.8203125 m 1
 575 293.1796875 l 1
 281.8203125 0 l 1
 218.1796875 0 l 1
 575 356.8203125 l 1
575 156.8203125 m 1
 575 93.1796875 l 1
 481.8203125 0 l 1
 418.1796875 0 l 1
 575 156.8203125 l 1
EndSplineSet
Validated: 524289
EndChar

StartChar: Lost.Tall
Encoding: 5 78917 6
Width: 625
VWidth: 1225
Flags: HW
LayerCount: 2
Fore
SplineSet
106.740234375 925 m 1
 170.380859375 925 l 1
 50 804.619140625 l 1
 50 868.259765625 l 1
 106.740234375 925 l 1
306.740234375 925 m 1
 370.380859375 925 l 1
 50 604.619140625 l 1
 50 668.259765625 l 1
 306.740234375 925 l 1
506.740234375 925 m 1
 570.380859375 925 l 1
 50 404.619140625 l 1
 50 468.259765625 l 1
 506.740234375 925 l 1
575 793.259765625 m 1
 575 729.619140625 l 1
 50 204.619140625 l 1
 50 268.259765625 l 1
 575 793.259765625 l 1
575 593.259765625 m 1
 575 529.619140625 l 1
 50 4.619140625 l 1
 50 68.259765625 l 1
 575 593.259765625 l 1
575 393.259765625 m 1
 575 329.619140625 l 1
 120.380859375 -125 l 1
 56.740234375 -125 l 1
 575 393.259765625 l 1
575 193.259765625 m 1
 575 129.619140625 l 1
 320.380859375 -125 l 1
 256.740234375 -125 l 1
 575 193.259765625 l 1
575 -6.740234375 m 1
 575 -70.380859375 l 1
 520.380859375 -125 l 1
 456.740234375 -125 l 1
 575 -6.740234375 l 1
EndSplineSet
Validated: 524289
EndChar

StartChar: Lost.Wide
Encoding: 6 78918 7
Width: 1150
VWidth: 1200
Flags: HW
LayerCount: 2
Fore
SplineSet
1100 56.740234375 m 1
 1043.25976562 0 l 1
 979.619140625 0 l 1
 1100 120.380859375 l 1
 1100 56.740234375 l 1
1100 256.740234375 m 1
 843.259765625 0 l 1
 779.619140625 0 l 1
 1100 320.380859375 l 1
 1100 256.740234375 l 1
1100 456.740234375 m 1
 643.259765625 0 l 1
 579.619140625 0 l 1
 1100 520.380859375 l 1
 1100 456.740234375 l 1
968.259765625 525 m 1
 443.259765625 0 l 1
 379.619140625 0 l 1
 904.619140625 525 l 1
 968.259765625 525 l 1
768.259765625 525 m 1
 243.259765625 0 l 1
 179.619140625 0 l 1
 704.619140625 525 l 1
 768.259765625 525 l 1
568.259765625 525 m 1
 50 6.740234375 l 1
 50 70.380859375 l 1
 504.619140625 525 l 1
 568.259765625 525 l 1
368.259765625 525 m 1
 50 206.740234375 l 1
 50 270.380859375 l 1
 304.619140625 525 l 1
 368.259765625 525 l 1
168.259765625 525 m 1
 50 406.740234375 l 1
 50 470.380859375 l 1
 104.619140625 525 l 1
 168.259765625 525 l 1
EndSplineSet
Validated: 524289
EndChar

StartChar: Stub.Dotc
Encoding: 8 9676 8
Width: 1100
VWidth: 1100
Flags: HW
AnchorPoint: "Centre" 550 400 basechar 0
LayerCount: 2
Fore
SplineSet
500 850 m 0
 500 877.614257812 522.385742188 900 550 900 c 0
 577.614257812 900 600 877.614257812 600 850 c 0
 600 822.385742188 577.614257812 800 550 800 c 0
 522.385742188 800 500 822.385742188 500 850 c 0
672.208007812 815.74609375 m 0
 672.208007812 843.360351562 694.59375 865.74609375 722.208007812 865.74609375 c 0
 749.822265625 865.74609375 772.208007812 843.360351562 772.208007812 815.74609375 c 0
 772.208007812 788.131835938 749.822265625 765.74609375 722.208007812 765.74609375 c 0
 694.59375 765.74609375 672.208007812 788.131835938 672.208007812 815.74609375 c 0
818.198242188 718.198242188 m 0
 818.198242188 745.8125 840.583984375 768.198242188 868.198242188 768.198242188 c 0
 895.8125 768.198242188 918.198242188 745.8125 918.198242188 718.198242188 c 0
 918.198242188 690.583984375 895.8125 668.198242188 868.198242188 668.198242188 c 0
 840.583984375 668.198242188 818.198242188 690.583984375 818.198242188 718.198242188 c 0
915.74609375 572.208007812 m 0
 915.74609375 599.822265625 938.131835938 622.208007812 965.74609375 622.208007812 c 0
 993.360351562 622.208007812 1015.74609375 599.822265625 1015.74609375 572.208007812 c 0
 1015.74609375 544.59375 993.360351562 522.208007812 965.74609375 522.208007812 c 0
 938.131835938 522.208007812 915.74609375 544.59375 915.74609375 572.208007812 c 0
950 400 m 0
 950 427.614257812 972.385742188 450 1000 450 c 0
 1027.61425781 450 1050 427.614257812 1050 400 c 0
 1050 372.385742188 1027.61425781 350 1000 350 c 0
 972.385742188 350 950 372.385742188 950 400 c 0
915.74609375 227.791992188 m 0
 915.74609375 255.40625 938.131835938 277.791992188 965.74609375 277.791992188 c 0
 993.360351562 277.791992188 1015.74609375 255.40625 1015.74609375 227.791992188 c 0
 1015.74609375 200.177734375 993.360351562 177.791992188 965.74609375 177.791992188 c 0
 938.131835938 177.791992188 915.74609375 200.177734375 915.74609375 227.791992188 c 0
818.198242188 81.8017578125 m 0
 818.198242188 109.416015625 840.583984375 131.801757812 868.198242188 131.801757812 c 0
 895.8125 131.801757812 918.198242188 109.416015625 918.198242188 81.8017578125 c 0
 918.198242188 54.1875 895.8125 31.8017578125 868.198242188 31.8017578125 c 0
 840.583984375 31.8017578125 818.198242188 54.1875 818.198242188 81.8017578125 c 0
672.208007812 -15.74609375 m 0
 672.208007812 11.8681640625 694.59375 34.25390625 722.208007812 34.25390625 c 0
 749.821289062 34.25390625 772.208007812 11.8681640625 772.208007812 -15.74609375 c 0
 772.208007812 -43.3603515625 749.821289062 -65.74609375 722.208007812 -65.74609375 c 0
 694.59375 -65.74609375 672.208007812 -43.3603515625 672.208007812 -15.74609375 c 0
500 -50 m 0
 500 -22.3857421875 522.385742188 0 550 0 c 0
 577.614257812 0 600 -22.3857421875 600 -50 c 0
 600 -77.6142578125 577.614257812 -100 550 -100 c 0
 522.385742188 -100 500 -77.6142578125 500 -50 c 0
327.791992188 -15.74609375 m 0
 327.791992188 11.8681640625 350.177734375 34.25390625 377.791992188 34.25390625 c 0
 405.40625 34.25390625 427.791992188 11.8681640625 427.791992188 -15.74609375 c 0
 427.791992188 -43.3603515625 405.40625 -65.74609375 377.791992188 -65.74609375 c 0
 350.177734375 -65.74609375 327.791992188 -43.3603515625 327.791992188 -15.74609375 c 0
181.801757812 81.8017578125 m 0
 181.801757812 109.416015625 204.1875 131.801757812 231.801757812 131.801757812 c 0
 259.416015625 131.801757812 281.801757812 109.416015625 281.801757812 81.8017578125 c 0
 281.801757812 54.1875 259.416015625 31.8017578125 231.801757812 31.8017578125 c 0
 204.1875 31.8017578125 181.801757812 54.1875 181.801757812 81.8017578125 c 0
84.25390625 227.791992188 m 0
 84.25390625 255.40625 106.639648438 277.791992188 134.25390625 277.791992188 c 0
 161.868164062 277.791992188 184.25390625 255.40625 184.25390625 227.791992188 c 0
 184.25390625 200.177734375 161.868164062 177.791992188 134.25390625 177.791992188 c 0
 106.639648438 177.791992188 84.25390625 200.177734375 84.25390625 227.791992188 c 0
50 400 m 0
 50 427.614257812 72.3857421875 450 100 450 c 0
 127.614257812 450 150 427.614257812 150 400 c 0
 150 372.385742188 127.614257812 350 100 350 c 0
 72.3857421875 350 50 372.385742188 50 400 c 0
84.25390625 572.208007812 m 0
 84.25390625 599.822265625 106.639648438 622.208007812 134.25390625 622.208007812 c 0
 161.868164062 622.208007812 184.25390625 599.822265625 184.25390625 572.208007812 c 0
 184.25390625 544.59375 161.868164062 522.208007812 134.25390625 522.208007812 c 0
 106.639648438 522.208007812 84.25390625 544.59375 84.25390625 572.208007812 c 0
181.801757812 718.198242188 m 0
 181.801757812 745.8125 204.1875 768.198242188 231.801757812 768.198242188 c 0
 259.416015625 768.198242188 281.801757812 745.8125 281.801757812 718.198242188 c 0
 281.801757812 690.583984375 259.416015625 668.198242188 231.801757812 668.198242188 c 0
 204.1875 668.198242188 181.801757812 690.583984375 181.801757812 718.198242188 c 0
327.791992188 815.74609375 m 0
 327.791992188 843.360351562 350.177734375 865.74609375 377.791992188 865.74609375 c 0
 405.40625 865.74609375 427.791992188 843.360351562 427.791992188 815.74609375 c 0
 427.791992188 788.131835938 405.40625 765.74609375 377.791992188 765.74609375 c 0
 350.177734375 765.74609375 327.791992188 788.131835938 327.791992188 815.74609375 c 0
EndSplineSet
Validated: 524289
EndChar

StartChar: Stub.Dmg.01
Encoding: 9 78919 9
Width: 1000
VWidth: 1275
Flags: HW
LayerCount: 2
Fore
SplineSet
50 850 m 1
 150 850 l 1
 150 800 l 1
 100 800 l 1
 100 750 l 1
 50 750 l 1
 50 850 l 1
50 650 m 1
 100 650 l 1
 100 550 l 1
 50 550 l 1
 50 650 l 1
50 450 m 1
 100 450 l 1
 100 350 l 1
 50 350 l 1
 50 450 l 1
50 -50 m 1
 50 50 l 1
 100 50 l 1
 100 0 l 1
 150 0 l 1
 150 -50 l 1
 50 -50 l 1
250 0 m 1
 350 0 l 1
 350 -50 l 1
 250 -50 l 1
 250 0 l 1
450 0 m 1
 550 0 l 1
 550 -50 l 1
 450 -50 l 1
 450 0 l 1
950 -50 m 1
 850 -50 l 1
 850 0 l 1
 900 0 l 1
 900 50 l 1
 950 50 l 1
 950 -50 l 1
900 650 m 1
 950 650 l 1
 950 550 l 1
 900 550 l 1
 900 650 l 1
50 250 m 1
 100 250 l 1
 100 150 l 1
 50 150 l 1
 50 250 l 1
650 0 m 1
 750 0 l 1
 750 -50 l 1
 650 -50 l 1
 650 0 l 1
900 450 m 1
 950 450 l 1
 950 350 l 1
 900 350 l 1
 900 450 l 1
900 250 m 1
 950 250 l 1
 950 150 l 1
 900 150 l 1
 900 250 l 1
250 850 m 1
 350 850 l 1
 350 800 l 1
 250 800 l 1
 250 850 l 1
450 850 m 1
 550 850 l 1
 550 800 l 1
 450 800 l 1
 450 850 l 1
650 850 m 1
 750 850 l 1
 750 800 l 1
 650 800 l 1
 650 850 l 1
950 850 m 1
 950 750 l 1
 900 750 l 1
 900 800 l 1
 850 800 l 1
 850 850 l 1
 950 850 l 1
200 400 m 1
 200 700 l 1
 500 700 l 1
 500 400 l 1
 200 400 l 1
470 430 m 1
 470 670 l 1
 230 670 l 1
 230 430 l 1
 470 430 l 1
275 475 m 1
 275 625 l 1
 425 625 l 1
 425 475 l 1
 275 475 l 1
EndSplineSet
Validated: 1
Substitution2: "Dotc" Dmg.Dotc.01
EndChar

StartChar: Stub.Dmg.02
Encoding: 10 78920 10
Width: 1000
VWidth: 1050
Flags: HW
LayerCount: 2
Fore
SplineSet
50 850 m 1
 150 850 l 1
 150 800 l 1
 100 800 l 1
 100 750 l 1
 50 750 l 1
 50 850 l 1
50 650 m 1
 100 650 l 1
 100 550 l 1
 50 550 l 1
 50 650 l 1
50 450 m 1
 100 450 l 1
 100 350 l 1
 50 350 l 1
 50 450 l 1
50 -50 m 1
 50 50 l 1
 100 50 l 1
 100 0 l 1
 150 0 l 1
 150 -50 l 1
 50 -50 l 1
250 0 m 1
 350 0 l 1
 350 -50 l 1
 250 -50 l 1
 250 0 l 1
450 0 m 1
 550 0 l 1
 550 -50 l 1
 450 -50 l 1
 450 0 l 1
950 -50 m 1
 850 -50 l 1
 850 0 l 1
 900 0 l 1
 900 50 l 1
 950 50 l 1
 950 -50 l 1
900 650 m 1
 950 650 l 1
 950 550 l 1
 900 550 l 1
 900 650 l 1
50 250 m 1
 100 250 l 1
 100 150 l 1
 50 150 l 1
 50 250 l 1
650 0 m 1
 750 0 l 1
 750 -50 l 1
 650 -50 l 1
 650 0 l 1
900 450 m 1
 950 450 l 1
 950 350 l 1
 900 350 l 1
 900 450 l 1
900 250 m 1
 950 250 l 1
 950 150 l 1
 900 150 l 1
 900 250 l 1
250 850 m 1
 350 850 l 1
 350 800 l 1
 250 800 l 1
 250 850 l 1
450 850 m 1
 550 850 l 1
 550 800 l 1
 450 800 l 1
 450 850 l 1
650 850 m 1
 750 850 l 1
 750 800 l 1
 650 800 l 1
 650 850 l 1
950 850 m 1
 950 750 l 1
 900 750 l 1
 900 800 l 1
 850 800 l 1
 850 850 l 1
 950 850 l 1
200 100 m 1
 200 400 l 1
 500 400 l 1
 500 100 l 1
 200 100 l 1
470 130 m 1
 470 370 l 1
 230 370 l 1
 230 130 l 1
 470 130 l 1
275 175 m 1
 275 325 l 1
 425 325 l 1
 425 175 l 1
 275 175 l 1
EndSplineSet
Validated: 1
Substitution2: "Dotc" Dmg.Dotc.02
EndChar

StartChar: Stub.Dmg.03
Encoding: 11 78921 11
Width: 1000
VWidth: 1050
Flags: HW
LayerCount: 2
Fore
SplineSet
50 850 m 1
 150 850 l 1
 150 800 l 1
 100 800 l 1
 100 750 l 1
 50 750 l 1
 50 850 l 1
50 650 m 1
 100 650 l 1
 100 550 l 1
 50 550 l 1
 50 650 l 1
50 450 m 1
 100 450 l 1
 100 350 l 1
 50 350 l 1
 50 450 l 1
50 -50 m 1
 50 50 l 1
 100 50 l 1
 100 0 l 1
 150 0 l 1
 150 -50 l 1
 50 -50 l 1
250 0 m 1
 350 0 l 1
 350 -50 l 1
 250 -50 l 1
 250 0 l 1
450 0 m 1
 550 0 l 1
 550 -50 l 1
 450 -50 l 1
 450 0 l 1
950 -50 m 1
 850 -50 l 1
 850 0 l 1
 900 0 l 1
 900 50 l 1
 950 50 l 1
 950 -50 l 1
900 650 m 1
 950 650 l 1
 950 550 l 1
 900 550 l 1
 900 650 l 1
50 250 m 1
 100 250 l 1
 100 150 l 1
 50 150 l 1
 50 250 l 1
650 0 m 1
 750 0 l 1
 750 -50 l 1
 650 -50 l 1
 650 0 l 1
900 450 m 1
 950 450 l 1
 950 350 l 1
 900 350 l 1
 900 450 l 1
900 250 m 1
 950 250 l 1
 950 150 l 1
 900 150 l 1
 900 250 l 1
250 850 m 1
 350 850 l 1
 350 800 l 1
 250 800 l 1
 250 850 l 1
450 850 m 1
 550 850 l 1
 550 800 l 1
 450 800 l 1
 450 850 l 1
650 850 m 1
 750 850 l 1
 750 800 l 1
 650 800 l 1
 650 850 l 1
950 850 m 1
 950 750 l 1
 900 750 l 1
 900 800 l 1
 850 800 l 1
 850 850 l 1
 950 850 l 1
200 100 m 1
 200 700 l 1
 500 700 l 1
 500 100 l 1
 200 100 l 1
470 130 m 1
 470 670 l 1
 230 670 l 1
 230 130 l 1
 470 130 l 1
275 175 m 1
 275 625 l 1
 425 625 l 1
 425 175 l 1
 275 175 l 1
EndSplineSet
Validated: 1
Substitution2: "Dotc" Dmg.Dotc.03
EndChar

StartChar: Stub.Dmg.04
Encoding: 12 78922 12
Width: 1000
VWidth: 1050
Flags: HW
LayerCount: 2
Fore
SplineSet
50 850 m 1
 150 850 l 1
 150 800 l 1
 100 800 l 1
 100 750 l 1
 50 750 l 1
 50 850 l 1
50 650 m 1
 100 650 l 1
 100 550 l 1
 50 550 l 1
 50 650 l 1
50 450 m 1
 100 450 l 1
 100 350 l 1
 50 350 l 1
 50 450 l 1
50 -50 m 1
 50 50 l 1
 100 50 l 1
 100 0 l 1
 150 0 l 1
 150 -50 l 1
 50 -50 l 1
250 0 m 1
 350 0 l 1
 350 -50 l 1
 250 -50 l 1
 250 0 l 1
450 0 m 1
 550 0 l 1
 550 -50 l 1
 450 -50 l 1
 450 0 l 1
950 -50 m 1
 850 -50 l 1
 850 0 l 1
 900 0 l 1
 900 50 l 1
 950 50 l 1
 950 -50 l 1
900 650 m 1
 950 650 l 1
 950 550 l 1
 900 550 l 1
 900 650 l 1
50 250 m 1
 100 250 l 1
 100 150 l 1
 50 150 l 1
 50 250 l 1
650 0 m 1
 750 0 l 1
 750 -50 l 1
 650 -50 l 1
 650 0 l 1
900 450 m 1
 950 450 l 1
 950 350 l 1
 900 350 l 1
 900 450 l 1
900 250 m 1
 950 250 l 1
 950 150 l 1
 900 150 l 1
 900 250 l 1
250 850 m 1
 350 850 l 1
 350 800 l 1
 250 800 l 1
 250 850 l 1
450 850 m 1
 550 850 l 1
 550 800 l 1
 450 800 l 1
 450 850 l 1
650 850 m 1
 750 850 l 1
 750 800 l 1
 650 800 l 1
 650 850 l 1
950 850 m 1
 950 750 l 1
 900 750 l 1
 900 800 l 1
 850 800 l 1
 850 850 l 1
 950 850 l 1
500 400 m 1
 500 700 l 1
 800 700 l 1
 800 400 l 1
 500 400 l 1
770 430 m 1
 770 670 l 1
 530 670 l 1
 530 430 l 1
 770 430 l 1
575 475 m 1
 575 625 l 1
 725 625 l 1
 725 475 l 1
 575 475 l 1
EndSplineSet
Validated: 1
Substitution2: "Dotc" Dmg.Dotc.04
EndChar

StartChar: Stub.Dmg.05
Encoding: 13 78923 13
Width: 1000
VWidth: 1050
Flags: HW
LayerCount: 2
Fore
SplineSet
50 850 m 1
 150 850 l 1
 150 800 l 1
 100 800 l 1
 100 750 l 1
 50 750 l 1
 50 850 l 1
50 650 m 1
 100 650 l 1
 100 550 l 1
 50 550 l 1
 50 650 l 1
50 450 m 1
 100 450 l 1
 100 350 l 1
 50 350 l 1
 50 450 l 1
50 -50 m 1
 50 50 l 1
 100 50 l 1
 100 0 l 1
 150 0 l 1
 150 -50 l 1
 50 -50 l 1
250 0 m 1
 350 0 l 1
 350 -50 l 1
 250 -50 l 1
 250 0 l 1
450 0 m 1
 550 0 l 1
 550 -50 l 1
 450 -50 l 1
 450 0 l 1
950 -50 m 1
 850 -50 l 1
 850 0 l 1
 900 0 l 1
 900 50 l 1
 950 50 l 1
 950 -50 l 1
900 650 m 1
 950 650 l 1
 950 550 l 1
 900 550 l 1
 900 650 l 1
50 250 m 1
 100 250 l 1
 100 150 l 1
 50 150 l 1
 50 250 l 1
650 0 m 1
 750 0 l 1
 750 -50 l 1
 650 -50 l 1
 650 0 l 1
900 450 m 1
 950 450 l 1
 950 350 l 1
 900 350 l 1
 900 450 l 1
900 250 m 1
 950 250 l 1
 950 150 l 1
 900 150 l 1
 900 250 l 1
250 850 m 1
 350 850 l 1
 350 800 l 1
 250 800 l 1
 250 850 l 1
450 850 m 1
 550 850 l 1
 550 800 l 1
 450 800 l 1
 450 850 l 1
650 850 m 1
 750 850 l 1
 750 800 l 1
 650 800 l 1
 650 850 l 1
950 850 m 1
 950 750 l 1
 900 750 l 1
 900 800 l 1
 850 800 l 1
 850 850 l 1
 950 850 l 1
200 400 m 1
 200 700 l 1
 800 700 l 1
 800 400 l 1
 200 400 l 1
770 430 m 1
 770 670 l 1
 230 670 l 1
 230 430 l 1
 770 430 l 1
275 475 m 1
 275 625 l 1
 725 625 l 1
 725 475 l 1
 275 475 l 1
EndSplineSet
Validated: 1
Substitution2: "Dotc" Dmg.Dotc.05
EndChar

StartChar: Stub.Dmg.06
Encoding: 14 78924 14
Width: 1000
VWidth: 1050
Flags: HW
LayerCount: 2
Fore
SplineSet
275 175 m 1
 275 325 l 1
 425 325 l 1
 425 175 l 1
 275 175 l 1
470 130 m 1
 470 370 l 1
 230 370 l 1
 230 130 l 1
 470 130 l 1
575 475 m 1
 575 625 l 1
 725 625 l 1
 725 475 l 1
 575 475 l 1
770 430 m 1
 770 670 l 1
 530 670 l 1
 530 430 l 1
 770 430 l 1
950 850 m 1
 950 750 l 1
 900 750 l 1
 900 800 l 1
 850 800 l 1
 850 850 l 1
 950 850 l 1
650 850 m 1
 750 850 l 1
 750 800 l 1
 650 800 l 1
 650 850 l 1
450 850 m 1
 550 850 l 1
 550 800 l 1
 450 800 l 1
 450 850 l 1
250 850 m 1
 350 850 l 1
 350 800 l 1
 250 800 l 1
 250 850 l 1
900 250 m 1
 950 250 l 1
 950 150 l 1
 900 150 l 1
 900 250 l 1
900 450 m 1
 950 450 l 1
 950 350 l 1
 900 350 l 1
 900 450 l 1
650 0 m 1
 750 0 l 1
 750 -50 l 1
 650 -50 l 1
 650 0 l 1
50 250 m 1
 100 250 l 1
 100 150 l 1
 50 150 l 1
 50 250 l 1
900 650 m 1
 950 650 l 1
 950 550 l 1
 900 550 l 1
 900 650 l 1
950 -50 m 1
 850 -50 l 1
 850 0 l 1
 900 0 l 1
 900 50 l 1
 950 50 l 1
 950 -50 l 1
450 0 m 1
 550 0 l 1
 550 -50 l 1
 450 -50 l 1
 450 0 l 1
250 0 m 1
 350 0 l 1
 350 -50 l 1
 250 -50 l 1
 250 0 l 1
50 -50 m 1
 50 50 l 1
 100 50 l 1
 100 0 l 1
 150 0 l 1
 150 -50 l 1
 50 -50 l 1
50 450 m 1
 100 450 l 1
 100 350 l 1
 50 350 l 1
 50 450 l 1
50 650 m 1
 100 650 l 1
 100 550 l 1
 50 550 l 1
 50 650 l 1
50 850 m 1
 150 850 l 1
 150 800 l 1
 100 800 l 1
 100 750 l 1
 50 750 l 1
 50 850 l 1
200 100 m 1
 200 400 l 1
 475 400 l 1
 500 425 l 1
 500 700 l 1
 800 700 l 1
 800 400 l 1
 525 400 l 1
 500 375 l 1
 500 100 l 1
 200 100 l 1
EndSplineSet
Validated: 1
Substitution2: "Dotc" Dmg.Dotc.06
EndChar

StartChar: Stub.Dmg.07
Encoding: 15 78925 15
Width: 1000
VWidth: 1050
Flags: HW
LayerCount: 2
Fore
SplineSet
50 850 m 1
 150 850 l 1
 150 800 l 1
 100 800 l 1
 100 750 l 1
 50 750 l 1
 50 850 l 1
50 650 m 1
 100 650 l 1
 100 550 l 1
 50 550 l 1
 50 650 l 1
50 450 m 1
 100 450 l 1
 100 350 l 1
 50 350 l 1
 50 450 l 1
50 -50 m 1
 50 50 l 1
 100 50 l 1
 100 0 l 1
 150 0 l 1
 150 -50 l 1
 50 -50 l 1
250 0 m 1
 350 0 l 1
 350 -50 l 1
 250 -50 l 1
 250 0 l 1
450 0 m 1
 550 0 l 1
 550 -50 l 1
 450 -50 l 1
 450 0 l 1
950 -50 m 1
 850 -50 l 1
 850 0 l 1
 900 0 l 1
 900 50 l 1
 950 50 l 1
 950 -50 l 1
900 650 m 1
 950 650 l 1
 950 550 l 1
 900 550 l 1
 900 650 l 1
50 250 m 1
 100 250 l 1
 100 150 l 1
 50 150 l 1
 50 250 l 1
650 0 m 1
 750 0 l 1
 750 -50 l 1
 650 -50 l 1
 650 0 l 1
900 450 m 1
 950 450 l 1
 950 350 l 1
 900 350 l 1
 900 450 l 1
900 250 m 1
 950 250 l 1
 950 150 l 1
 900 150 l 1
 900 250 l 1
250 850 m 1
 350 850 l 1
 350 800 l 1
 250 800 l 1
 250 850 l 1
450 850 m 1
 550 850 l 1
 550 800 l 1
 450 800 l 1
 450 850 l 1
650 850 m 1
 750 850 l 1
 750 800 l 1
 650 800 l 1
 650 850 l 1
950 850 m 1
 950 750 l 1
 900 750 l 1
 900 800 l 1
 850 800 l 1
 850 850 l 1
 950 850 l 1
200 700 m 1
 800 700 l 1
 800 400 l 1
 500 400 l 1
 500 100 l 1
 200 100 l 1
 200 700 l 1
230 130 m 1
 470 130 l 1
 470 430 l 1
 770 430 l 1
 770 670 l 1
 230 670 l 1
 230 130 l 1
275 625 m 1
 725 625 l 1
 725 475 l 1
 425 475 l 1
 425 175 l 1
 275 175 l 1
 275 625 l 1
EndSplineSet
Validated: 1
Substitution2: "Dotc" Dmg.Dotc.07
EndChar

StartChar: Stub.Dmg.08
Encoding: 16 78926 16
Width: 1000
VWidth: 1050
Flags: HW
LayerCount: 2
Fore
SplineSet
50 850 m 1
 150 850 l 1
 150 800 l 1
 100 800 l 1
 100 750 l 1
 50 750 l 1
 50 850 l 1
50 650 m 1
 100 650 l 1
 100 550 l 1
 50 550 l 1
 50 650 l 1
50 450 m 1
 100 450 l 1
 100 350 l 1
 50 350 l 1
 50 450 l 1
50 -50 m 1
 50 50 l 1
 100 50 l 1
 100 0 l 1
 150 0 l 1
 150 -50 l 1
 50 -50 l 1
250 0 m 1
 350 0 l 1
 350 -50 l 1
 250 -50 l 1
 250 0 l 1
450 0 m 1
 550 0 l 1
 550 -50 l 1
 450 -50 l 1
 450 0 l 1
950 -50 m 1
 850 -50 l 1
 850 0 l 1
 900 0 l 1
 900 50 l 1
 950 50 l 1
 950 -50 l 1
900 650 m 1
 950 650 l 1
 950 550 l 1
 900 550 l 1
 900 650 l 1
50 250 m 1
 100 250 l 1
 100 150 l 1
 50 150 l 1
 50 250 l 1
650 0 m 1
 750 0 l 1
 750 -50 l 1
 650 -50 l 1
 650 0 l 1
900 450 m 1
 950 450 l 1
 950 350 l 1
 900 350 l 1
 900 450 l 1
900 250 m 1
 950 250 l 1
 950 150 l 1
 900 150 l 1
 900 250 l 1
250 850 m 1
 350 850 l 1
 350 800 l 1
 250 800 l 1
 250 850 l 1
450 850 m 1
 550 850 l 1
 550 800 l 1
 450 800 l 1
 450 850 l 1
650 850 m 1
 750 850 l 1
 750 800 l 1
 650 800 l 1
 650 850 l 1
950 850 m 1
 950 750 l 1
 900 750 l 1
 900 800 l 1
 850 800 l 1
 850 850 l 1
 950 850 l 1
500 100 m 1
 500 400 l 1
 800 400 l 1
 800 100 l 1
 500 100 l 1
770 130 m 1
 770 370 l 1
 530 370 l 1
 530 130 l 1
 770 130 l 1
575 175 m 1
 575 325 l 1
 725 325 l 1
 725 175 l 1
 575 175 l 1
EndSplineSet
Validated: 1
Substitution2: "Dotc" Dmg.Dotc.08
EndChar

StartChar: Stub.Dmg.09
Encoding: 17 78927 17
Width: 1000
VWidth: 1050
Flags: HW
LayerCount: 2
Fore
SplineSet
275 475 m 1
 275 625 l 1
 425 625 l 1
 425 475 l 1
 275 475 l 1
470 430 m 1
 470 670 l 1
 230 670 l 1
 230 430 l 1
 470 430 l 1
575 175 m 1
 575 325 l 1
 725 325 l 1
 725 175 l 1
 575 175 l 1
770 130 m 1
 770 370 l 1
 530 370 l 1
 530 130 l 1
 770 130 l 1
950 850 m 1
 950 750 l 1
 900 750 l 1
 900 800 l 1
 850 800 l 1
 850 850 l 1
 950 850 l 1
650 850 m 1
 750 850 l 1
 750 800 l 1
 650 800 l 1
 650 850 l 1
450 850 m 1
 550 850 l 1
 550 800 l 1
 450 800 l 1
 450 850 l 1
250 850 m 1
 350 850 l 1
 350 800 l 1
 250 800 l 1
 250 850 l 1
900 250 m 1
 950 250 l 1
 950 150 l 1
 900 150 l 1
 900 250 l 1
900 450 m 1
 950 450 l 1
 950 350 l 1
 900 350 l 1
 900 450 l 1
650 0 m 1
 750 0 l 1
 750 -50 l 1
 650 -50 l 1
 650 0 l 1
50 250 m 1
 100 250 l 1
 100 150 l 1
 50 150 l 1
 50 250 l 1
900 650 m 1
 950 650 l 1
 950 550 l 1
 900 550 l 1
 900 650 l 1
950 -50 m 1
 850 -50 l 1
 850 0 l 1
 900 0 l 1
 900 50 l 1
 950 50 l 1
 950 -50 l 1
450 0 m 1
 550 0 l 1
 550 -50 l 1
 450 -50 l 1
 450 0 l 1
250 0 m 1
 350 0 l 1
 350 -50 l 1
 250 -50 l 1
 250 0 l 1
50 -50 m 1
 50 50 l 1
 100 50 l 1
 100 0 l 1
 150 0 l 1
 150 -50 l 1
 50 -50 l 1
50 450 m 1
 100 450 l 1
 100 350 l 1
 50 350 l 1
 50 450 l 1
50 650 m 1
 100 650 l 1
 100 550 l 1
 50 550 l 1
 50 650 l 1
50 850 m 1
 150 850 l 1
 150 800 l 1
 100 800 l 1
 100 750 l 1
 50 750 l 1
 50 850 l 1
200 400 m 1
 200 700 l 1
 500 700 l 1
 500 425 l 1
 525 400 l 1
 800 400 l 1
 800 100 l 1
 500 100 l 1
 500 375 l 1
 475 400 l 1
 200 400 l 1
EndSplineSet
Validated: 1
Substitution2: "Dotc" Dmg.Dotc.09
EndChar

StartChar: Stub.Dmg.10
Encoding: 18 78928 18
Width: 1000
VWidth: 1050
Flags: HW
LayerCount: 2
Fore
SplineSet
50 850 m 1
 150 850 l 1
 150 800 l 1
 100 800 l 1
 100 750 l 1
 50 750 l 1
 50 850 l 1
50 650 m 1
 100 650 l 1
 100 550 l 1
 50 550 l 1
 50 650 l 1
50 450 m 1
 100 450 l 1
 100 350 l 1
 50 350 l 1
 50 450 l 1
50 -50 m 1
 50 50 l 1
 100 50 l 1
 100 0 l 1
 150 0 l 1
 150 -50 l 1
 50 -50 l 1
250 0 m 1
 350 0 l 1
 350 -50 l 1
 250 -50 l 1
 250 0 l 1
450 0 m 1
 550 0 l 1
 550 -50 l 1
 450 -50 l 1
 450 0 l 1
950 -50 m 1
 850 -50 l 1
 850 0 l 1
 900 0 l 1
 900 50 l 1
 950 50 l 1
 950 -50 l 1
900 650 m 1
 950 650 l 1
 950 550 l 1
 900 550 l 1
 900 650 l 1
50 250 m 1
 100 250 l 1
 100 150 l 1
 50 150 l 1
 50 250 l 1
650 0 m 1
 750 0 l 1
 750 -50 l 1
 650 -50 l 1
 650 0 l 1
900 450 m 1
 950 450 l 1
 950 350 l 1
 900 350 l 1
 900 450 l 1
900 250 m 1
 950 250 l 1
 950 150 l 1
 900 150 l 1
 900 250 l 1
250 850 m 1
 350 850 l 1
 350 800 l 1
 250 800 l 1
 250 850 l 1
450 850 m 1
 550 850 l 1
 550 800 l 1
 450 800 l 1
 450 850 l 1
650 850 m 1
 750 850 l 1
 750 800 l 1
 650 800 l 1
 650 850 l 1
950 850 m 1
 950 750 l 1
 900 750 l 1
 900 800 l 1
 850 800 l 1
 850 850 l 1
 950 850 l 1
200 100 m 1
 200 400 l 1
 800 400 l 1
 800 100 l 1
 200 100 l 1
770 130 m 1
 770 370 l 1
 230 370 l 1
 230 130 l 1
 770 130 l 1
275 175 m 1
 275 325 l 1
 725 325 l 1
 725 175 l 1
 275 175 l 1
EndSplineSet
Validated: 1
Substitution2: "Dotc" Dmg.Dotc.10
EndChar

StartChar: Stub.Dmg.11
Encoding: 19 78929 19
Width: 1000
VWidth: 1050
Flags: HW
LayerCount: 2
Fore
SplineSet
50 850 m 1
 150 850 l 1
 150 800 l 1
 100 800 l 1
 100 750 l 1
 50 750 l 1
 50 850 l 1
50 650 m 1
 100 650 l 1
 100 550 l 1
 50 550 l 1
 50 650 l 1
50 450 m 1
 100 450 l 1
 100 350 l 1
 50 350 l 1
 50 450 l 1
50 -50 m 1
 50 50 l 1
 100 50 l 1
 100 0 l 1
 150 0 l 1
 150 -50 l 1
 50 -50 l 1
250 0 m 1
 350 0 l 1
 350 -50 l 1
 250 -50 l 1
 250 0 l 1
450 0 m 1
 550 0 l 1
 550 -50 l 1
 450 -50 l 1
 450 0 l 1
950 -50 m 1
 850 -50 l 1
 850 0 l 1
 900 0 l 1
 900 50 l 1
 950 50 l 1
 950 -50 l 1
900 650 m 1
 950 650 l 1
 950 550 l 1
 900 550 l 1
 900 650 l 1
50 250 m 1
 100 250 l 1
 100 150 l 1
 50 150 l 1
 50 250 l 1
650 0 m 1
 750 0 l 1
 750 -50 l 1
 650 -50 l 1
 650 0 l 1
900 450 m 1
 950 450 l 1
 950 350 l 1
 900 350 l 1
 900 450 l 1
900 250 m 1
 950 250 l 1
 950 150 l 1
 900 150 l 1
 900 250 l 1
250 850 m 1
 350 850 l 1
 350 800 l 1
 250 800 l 1
 250 850 l 1
450 850 m 1
 550 850 l 1
 550 800 l 1
 450 800 l 1
 450 850 l 1
650 850 m 1
 750 850 l 1
 750 800 l 1
 650 800 l 1
 650 850 l 1
950 850 m 1
 950 750 l 1
 900 750 l 1
 900 800 l 1
 850 800 l 1
 850 850 l 1
 950 850 l 1
200 700 m 1
 500 700 l 1
 500 400 l 1
 800 400 l 1
 800 100 l 1
 200 100 l 1
 200 700 l 1
230 130 m 1
 770 130 l 1
 770 370 l 1
 470 370 l 1
 470 670 l 1
 230 670 l 1
 230 130 l 1
275 625 m 1
 425 625 l 1
 425 325 l 1
 725 325 l 1
 725 175 l 1
 275 175 l 1
 275 625 l 1
EndSplineSet
Validated: 1
Substitution2: "Dotc" Dmg.Dotc.11
EndChar

StartChar: Stub.Dmg.12
Encoding: 20 78930 20
Width: 1000
VWidth: 1050
Flags: HW
LayerCount: 2
Fore
SplineSet
50 850 m 1
 150 850 l 1
 150 800 l 1
 100 800 l 1
 100 750 l 1
 50 750 l 1
 50 850 l 1
50 650 m 1
 100 650 l 1
 100 550 l 1
 50 550 l 1
 50 650 l 1
50 450 m 1
 100 450 l 1
 100 350 l 1
 50 350 l 1
 50 450 l 1
50 -50 m 1
 50 50 l 1
 100 50 l 1
 100 0 l 1
 150 0 l 1
 150 -50 l 1
 50 -50 l 1
250 0 m 1
 350 0 l 1
 350 -50 l 1
 250 -50 l 1
 250 0 l 1
450 0 m 1
 550 0 l 1
 550 -50 l 1
 450 -50 l 1
 450 0 l 1
950 -50 m 1
 850 -50 l 1
 850 0 l 1
 900 0 l 1
 900 50 l 1
 950 50 l 1
 950 -50 l 1
900 650 m 1
 950 650 l 1
 950 550 l 1
 900 550 l 1
 900 650 l 1
50 250 m 1
 100 250 l 1
 100 150 l 1
 50 150 l 1
 50 250 l 1
650 0 m 1
 750 0 l 1
 750 -50 l 1
 650 -50 l 1
 650 0 l 1
900 450 m 1
 950 450 l 1
 950 350 l 1
 900 350 l 1
 900 450 l 1
900 250 m 1
 950 250 l 1
 950 150 l 1
 900 150 l 1
 900 250 l 1
250 850 m 1
 350 850 l 1
 350 800 l 1
 250 800 l 1
 250 850 l 1
450 850 m 1
 550 850 l 1
 550 800 l 1
 450 800 l 1
 450 850 l 1
650 850 m 1
 750 850 l 1
 750 800 l 1
 650 800 l 1
 650 850 l 1
950 850 m 1
 950 750 l 1
 900 750 l 1
 900 800 l 1
 850 800 l 1
 850 850 l 1
 950 850 l 1
500 100 m 1
 500 700 l 1
 800 700 l 1
 800 100 l 1
 500 100 l 1
770 130 m 1
 770 670 l 1
 530 670 l 1
 530 130 l 1
 770 130 l 1
575 175 m 1
 575 625 l 1
 725 625 l 1
 725 175 l 1
 575 175 l 1
EndSplineSet
Validated: 1
Substitution2: "Dotc" Dmg.Dotc.12
EndChar

StartChar: Stub.Dmg.13
Encoding: 21 78931 21
Width: 1000
VWidth: 1050
Flags: HW
LayerCount: 2
Fore
SplineSet
50 850 m 1
 150 850 l 1
 150 800 l 1
 100 800 l 1
 100 750 l 1
 50 750 l 1
 50 850 l 1
50 650 m 1
 100 650 l 1
 100 550 l 1
 50 550 l 1
 50 650 l 1
50 450 m 1
 100 450 l 1
 100 350 l 1
 50 350 l 1
 50 450 l 1
50 -50 m 1
 50 50 l 1
 100 50 l 1
 100 0 l 1
 150 0 l 1
 150 -50 l 1
 50 -50 l 1
250 0 m 1
 350 0 l 1
 350 -50 l 1
 250 -50 l 1
 250 0 l 1
450 0 m 1
 550 0 l 1
 550 -50 l 1
 450 -50 l 1
 450 0 l 1
950 -50 m 1
 850 -50 l 1
 850 0 l 1
 900 0 l 1
 900 50 l 1
 950 50 l 1
 950 -50 l 1
900 650 m 1
 950 650 l 1
 950 550 l 1
 900 550 l 1
 900 650 l 1
50 250 m 1
 100 250 l 1
 100 150 l 1
 50 150 l 1
 50 250 l 1
650 0 m 1
 750 0 l 1
 750 -50 l 1
 650 -50 l 1
 650 0 l 1
900 450 m 1
 950 450 l 1
 950 350 l 1
 900 350 l 1
 900 450 l 1
900 250 m 1
 950 250 l 1
 950 150 l 1
 900 150 l 1
 900 250 l 1
250 850 m 1
 350 850 l 1
 350 800 l 1
 250 800 l 1
 250 850 l 1
450 850 m 1
 550 850 l 1
 550 800 l 1
 450 800 l 1
 450 850 l 1
650 850 m 1
 750 850 l 1
 750 800 l 1
 650 800 l 1
 650 850 l 1
950 850 m 1
 950 750 l 1
 900 750 l 1
 900 800 l 1
 850 800 l 1
 850 850 l 1
 950 850 l 1
200 700 m 1
 800 700 l 1
 800 100 l 1
 500 100 l 1
 500 400 l 1
 200 400 l 1
 200 700 l 1
230 430 m 1
 530 430 l 1
 530 130 l 1
 770 130 l 1
 770 670 l 1
 230 670 l 1
 230 430 l 1
275 625 m 1
 725 625 l 1
 725 175 l 1
 575 175 l 1
 575 475 l 1
 275 475 l 1
 275 625 l 1
EndSplineSet
Validated: 1
Substitution2: "Dotc" Dmg.Dotc.13
EndChar

StartChar: Stub.Dmg.14
Encoding: 22 78932 22
Width: 1000
VWidth: 1050
Flags: HWO
LayerCount: 2
Fore
SplineSet
50 850 m 1
 150 850 l 1
 150 800 l 1
 100 800 l 1
 100 750 l 1
 50 750 l 1
 50 850 l 1
50 650 m 1
 100 650 l 1
 100 550 l 1
 50 550 l 1
 50 650 l 1
50 450 m 1
 100 450 l 1
 100 350 l 1
 50 350 l 1
 50 450 l 1
50 -50 m 1
 50 50 l 1
 100 50 l 1
 100 0 l 1
 150 0 l 1
 150 -50 l 1
 50 -50 l 1
250 0 m 1
 350 0 l 1
 350 -50 l 1
 250 -50 l 1
 250 0 l 1
450 0 m 1
 550 0 l 1
 550 -50 l 1
 450 -50 l 1
 450 0 l 1
950 -50 m 1
 850 -50 l 1
 850 0 l 1
 900 0 l 1
 900 50 l 1
 950 50 l 1
 950 -50 l 1
900 650 m 1
 950 650 l 1
 950 550 l 1
 900 550 l 1
 900 650 l 1
50 250 m 1
 100 250 l 1
 100 150 l 1
 50 150 l 1
 50 250 l 1
650 0 m 1
 750 0 l 1
 750 -50 l 1
 650 -50 l 1
 650 0 l 1
900 450 m 1
 950 450 l 1
 950 350 l 1
 900 350 l 1
 900 450 l 1
900 250 m 1
 950 250 l 1
 950 150 l 1
 900 150 l 1
 900 250 l 1
250 850 m 1
 350 850 l 1
 350 800 l 1
 250 800 l 1
 250 850 l 1
450 850 m 1
 550 850 l 1
 550 800 l 1
 450 800 l 1
 450 850 l 1
650 850 m 1
 750 850 l 1
 750 800 l 1
 650 800 l 1
 650 850 l 1
950 850 m 1
 950 750 l 1
 900 750 l 1
 900 800 l 1
 850 800 l 1
 850 850 l 1
 950 850 l 1
800 700 m 1
 800 100 l 1
 200 100 l 1
 200 400 l 1
 500 400 l 1
 500 700 l 1
 800 700 l 1
530 670 m 1
 530 370 l 1
 230 370 l 1
 230 130 l 1
 770 130 l 1
 770 670 l 1
 530 670 l 1
725 625 m 1
 725 175 l 1
 275 175 l 1
 275 325 l 1
 575 325 l 1
 575 625 l 1
 725 625 l 1
EndSplineSet
Validated: 1
Substitution2: "Dotc" Dmg.Dotc.14
EndChar

StartChar: Stub.Dmg.15
Encoding: 23 78933 23
Width: 1000
VWidth: 1050
Flags: HW
LayerCount: 2
Fore
SplineSet
50 850 m 1
 150 850 l 1
 150 800 l 1
 100 800 l 1
 100 750 l 1
 50 750 l 1
 50 850 l 1
50 650 m 1
 100 650 l 1
 100 550 l 1
 50 550 l 1
 50 650 l 1
50 450 m 1
 100 450 l 1
 100 350 l 1
 50 350 l 1
 50 450 l 1
50 -50 m 1
 50 50 l 1
 100 50 l 1
 100 0 l 1
 150 0 l 1
 150 -50 l 1
 50 -50 l 1
250 0 m 1
 350 0 l 1
 350 -50 l 1
 250 -50 l 1
 250 0 l 1
450 0 m 1
 550 0 l 1
 550 -50 l 1
 450 -50 l 1
 450 0 l 1
950 -50 m 1
 850 -50 l 1
 850 0 l 1
 900 0 l 1
 900 50 l 1
 950 50 l 1
 950 -50 l 1
900 650 m 1
 950 650 l 1
 950 550 l 1
 900 550 l 1
 900 650 l 1
50 250 m 1
 100 250 l 1
 100 150 l 1
 50 150 l 1
 50 250 l 1
650 0 m 1
 750 0 l 1
 750 -50 l 1
 650 -50 l 1
 650 0 l 1
900 450 m 1
 950 450 l 1
 950 350 l 1
 900 350 l 1
 900 450 l 1
900 250 m 1
 950 250 l 1
 950 150 l 1
 900 150 l 1
 900 250 l 1
250 850 m 1
 350 850 l 1
 350 800 l 1
 250 800 l 1
 250 850 l 1
450 850 m 1
 550 850 l 1
 550 800 l 1
 450 800 l 1
 450 850 l 1
650 850 m 1
 750 850 l 1
 750 800 l 1
 650 800 l 1
 650 850 l 1
950 850 m 1
 950 750 l 1
 900 750 l 1
 900 800 l 1
 850 800 l 1
 850 850 l 1
 950 850 l 1
200 100 m 1
 200 700 l 1
 800 700 l 1
 800 100 l 1
 200 100 l 1
770 130 m 1
 770 670 l 1
 230 670 l 1
 230 130 l 1
 770 130 l 1
275 175 m 1
 275 625 l 1
 725 625 l 1
 725 175 l 1
 275 175 l 1
EndSplineSet
Validated: 1
Substitution2: "Dotc" Dmg.Dotc.15
EndChar

StartChar: Dmg.Dotc.01
Encoding: 24 -1 24
Width: 0
GlyphClass: 4
Flags: HW
AnchorPoint: "Centre" -525 400 mark 0
LayerCount: 2
Fore
SplineSet
-918 925 m 1
 -882 925 l 1
 -1050 757 l 1
 -1050 793 l 1
 -918 925 l 1
-718 925 m 1
 -682 925 l 1
 -1050 557 l 1
 -1050 593 l 1
 -718 925 l 1
-525 918 m 1
 -525 882 l 1
 -1007 400 l 1
 -1043 400 l 1
 -525 918 l 1
-525 718 m 1
 -525 682 l 1
 -807 400 l 1
 -843 400 l 1
 -525 718 l 1
-525 518 m 1
 -525 482 l 1
 -607 400 l 1
 -643 400 l 1
 -525 518 l 1
EndSplineSet
Validated: 1
EndChar

StartChar: Dmg.Dotc.02
Encoding: 25 -1 25
Width: 0
GlyphClass: 4
Flags: HW
AnchorPoint: "Centre" -525 400 mark 0
LayerCount: 2
Fore
SplineSet
-1043 400 m 1
 -1007 400 l 1
 -1050 357 l 1
 -1050 393 l 1
 -1043 400 l 1
-843 400 m 1
 -807 400 l 1
 -1050 157 l 1
 -1050 193 l 1
 -843 400 l 1
-643 400 m 1
 -607 400 l 1
 -1050 -43 l 1
 -1050 -7 l 1
 -643 400 l 1
-525 318 m 1
 -525 282 l 1
 -932 -125 l 1
 -968 -125 l 1
 -525 318 l 1
-525 118 m 1
 -525 82 l 1
 -732 -125 l 1
 -768 -125 l 1
 -525 118 l 1
-525 -82 m 1
 -525 -118 l 1
 -532 -125 l 1
 -568 -125 l 1
 -525 -82 l 1
EndSplineSet
Validated: 1
EndChar

StartChar: Dmg.Dotc.03
Encoding: 26 -1 26
Width: 0
VWidth: 1225
GlyphClass: 4
Flags: HW
AnchorPoint: "Centre" -525 400 mark 0
LayerCount: 2
Fore
SplineSet
-918 925 m 1
 -882 925 l 1
 -1050 757 l 1
 -1050 793 l 1
 -918 925 l 1
-718 925 m 1
 -682 925 l 1
 -1050 557 l 1
 -1050 593 l 1
 -718 925 l 1
-525 918 m 1
 -525 882 l 1
 -1050 357 l 1
 -1050 393 l 1
 -525 918 l 1
-525 718 m 1
 -525 682 l 1
 -1050 157 l 1
 -1050 193 l 1
 -525 718 l 1
-525 518 m 1
 -525 482 l 1
 -1050 -43 l 1
 -1050 -7 l 1
 -525 518 l 1
-525 318 m 1
 -525 282 l 1
 -932 -125 l 1
 -968 -125 l 1
 -525 318 l 1
-525 118 m 1
 -525 82 l 1
 -732 -125 l 1
 -768 -125 l 1
 -525 118 l 1
-525 -82 m 1
 -525 -118 l 1
 -532 -125 l 1
 -568 -125 l 1
 -525 -82 l 1
EndSplineSet
Validated: 1
EndChar

StartChar: Dmg.Dotc.04
Encoding: 27 -1 27
Width: 0
GlyphClass: 4
Flags: HW
AnchorPoint: "Centre" -525 400 mark 0
LayerCount: 2
Fore
SplineSet
-518 925 m 1
 -482 925 l 1
 -525 882 l 1
 -525 918 l 1
 -518 925 l 1
-318 925 m 1
 -282 925 l 1
 -525 682 l 1
 -525 718 l 1
 -318 925 l 1
-118 925 m 1
 -82 925 l 1
 -525 482 l 1
 -525 518 l 1
 -118 925 l 1
0 843 m 1
 0 807 l 1
 -407 400 l 1
 -443 400 l 1
 0 843 l 1
0 643 m 1
 0 607 l 1
 -207 400 l 1
 -243 400 l 1
 0 643 l 1
0 443 m 1
 0 407 l 1
 -7 400 l 1
 -43 400 l 1
 0 443 l 1
EndSplineSet
Validated: 1
EndChar

StartChar: Dmg.Dotc.05
Encoding: 28 -1 28
Width: 0
GlyphClass: 4
Flags: HW
AnchorPoint: "Centre" -525 400 mark 0
LayerCount: 2
Fore
SplineSet
-918 925 m 1
 -882 925 l 1
 -1050 757 l 1
 -1050 793 l 1
 -918 925 l 1
-718 925 m 1
 -682 925 l 1
 -1050 557 l 1
 -1050 593 l 1
 -718 925 l 1
-518 925 m 1
 -482 925 l 1
 -1007 400 l 1
 -1043 400 l 1
 -518 925 l 1
-318 925 m 1
 -282 925 l 1
 -807 400 l 1
 -843 400 l 1
 -318 925 l 1
-118 925 m 1
 -82 925 l 1
 -607 400 l 1
 -643 400 l 1
 -118 925 l 1
0 843 m 1
 0 807 l 1
 -407 400 l 1
 -443 400 l 1
 0 843 l 1
0 643 m 1
 0 607 l 1
 -207 400 l 1
 -243 400 l 1
 0 643 l 1
0 443 m 1
 0 407 l 1
 -7 400 l 1
 -43 400 l 1
 0 443 l 1
EndSplineSet
Validated: 1
EndChar

StartChar: Dmg.Dotc.08
Encoding: 31 -1 29
Width: 0
GlyphClass: 4
Flags: HW
AnchorPoint: "Centre" -525 400 mark 0
LayerCount: 2
Fore
SplineSet
-443 400 m 1
 -407 400 l 1
 -525 282 l 1
 -525 318 l 1
 -443 400 l 1
-243 400 m 1
 -207 400 l 1
 -525 82 l 1
 -525 118 l 1
 -243 400 l 1
-43 400 m 1
 -7 400 l 1
 -525 -118 l 1
 -525 -82 l 1
 -43 400 l 1
0 243 m 1
 0 207 l 1
 -332 -125 l 1
 -368 -125 l 1
 0 243 l 1
0 43 m 1
 0 7 l 1
 -132 -125 l 1
 -168 -125 l 1
 0 43 l 1
EndSplineSet
Validated: 1
EndChar

StartChar: Dmg.Dotc.10
Encoding: 33 -1 30
Width: 0
GlyphClass: 4
Flags: HW
AnchorPoint: "Centre" -525 400 mark 0
LayerCount: 2
Fore
SplineSet
-1043 400 m 1
 -1007 400 l 1
 -1050 357 l 1
 -1050 393 l 1
 -1043 400 l 1
-843 400 m 1
 -807 400 l 1
 -1050 157 l 1
 -1050 193 l 1
 -843 400 l 1
-643 400 m 1
 -607 400 l 1
 -1050 -43 l 1
 -1050 -7 l 1
 -643 400 l 1
-443 400 m 1
 -407 400 l 1
 -932 -125 l 1
 -968 -125 l 1
 -443 400 l 1
-243 400 m 1
 -207 400 l 1
 -732 -125 l 1
 -768 -125 l 1
 -243 400 l 1
-43 400 m 1
 -7 400 l 1
 -532 -125 l 1
 -568 -125 l 1
 -43 400 l 1
0 243 m 1
 0 207 l 1
 -332 -125 l 1
 -368 -125 l 1
 0 243 l 1
0 43 m 1
 0 7 l 1
 -132 -125 l 1
 -168 -125 l 1
 0 43 l 1
EndSplineSet
Validated: 1
EndChar

StartChar: Dmg.Dotc.11
Encoding: 34 -1 31
Width: 0
GlyphClass: 4
Flags: HW
AnchorPoint: "Centre" -525 400 mark 0
LayerCount: 2
Fore
SplineSet
-918 925 m 1
 -882 925 l 1
 -1050 757 l 1
 -1050 793 l 1
 -918 925 l 1
-718 925 m 1
 -682 925 l 1
 -1050 557 l 1
 -1050 593 l 1
 -718 925 l 1
-525 918 m 1
 -525 882 l 1
 -1050 357 l 1
 -1050 393 l 1
 -525 918 l 1
-525 718 m 1
 -525 682 l 1
 -1050 157 l 1
 -1050 193 l 1
 -525 718 l 1
-525 518 m 1
 -525 482 l 1
 -1050 -43 l 1
 -1050 -7 l 1
 -525 518 l 1
-443 400 m 1
 -407 400 l 1
 -932 -125 l 1
 -968 -125 l 1
 -443 400 l 1
-243 400 m 1
 -207 400 l 1
 -732 -125 l 1
 -768 -125 l 1
 -243 400 l 1
-43 400 m 1
 -7 400 l 1
 -532 -125 l 1
 -568 -125 l 1
 -43 400 l 1
0 243 m 1
 0 207 l 1
 -332 -125 l 1
 -368 -125 l 1
 0 243 l 1
0 43 m 1
 0 7 l 1
 -132 -125 l 1
 -168 -125 l 1
 0 43 l 1
EndSplineSet
Validated: 1
EndChar

StartChar: Dmg.Dotc.12
Encoding: 35 -1 32
Width: 0
VWidth: 1225
GlyphClass: 4
Flags: HW
AnchorPoint: "Centre" -525 400 mark 0
LayerCount: 2
Fore
SplineSet
-518 925 m 1
 -482 925 l 1
 -525 882 l 1
 -525 918 l 1
 -518 925 l 1
-318 925 m 1
 -282 925 l 1
 -525 682 l 1
 -525 718 l 1
 -318 925 l 1
-118 925 m 1
 -82 925 l 1
 -525 482 l 1
 -525 518 l 1
 -118 925 l 1
0 843 m 1
 0 807 l 1
 -525 282 l 1
 -525 318 l 1
 0 843 l 1
0 643 m 1
 0 607 l 1
 -525 82 l 1
 -525 118 l 1
 0 643 l 1
0 443 m 1
 0 407 l 1
 -525 -118 l 1
 -525 -82 l 1
 0 443 l 1
0 243 m 1
 0 207 l 1
 -332 -125 l 1
 -368 -125 l 1
 0 243 l 1
0 43 m 1
 0 7 l 1
 -132 -125 l 1
 -168 -125 l 1
 0 43 l 1
EndSplineSet
Validated: 1
EndChar

StartChar: Dmg.Dotc.15
Encoding: 38 -1 33
Width: 0
VWidth: 1725
GlyphClass: 4
Flags: HW
AnchorPoint: "Centre" -525 400 mark 0
LayerCount: 2
Fore
SplineSet
-918 925 m 1
 -882 925 l 1
 -1050 757 l 1
 -1050 793 l 1
 -918 925 l 1
-718 925 m 1
 -682 925 l 1
 -1050 557 l 1
 -1050 593 l 1
 -718 925 l 1
-518 925 m 1
 -482 925 l 1
 -1050 357 l 1
 -1050 393 l 1
 -518 925 l 1
-318 925 m 1
 -282 925 l 1
 -1050 157 l 1
 -1050 193 l 1
 -318 925 l 1
-118 925 m 1
 -82 925 l 1
 -1050 -43 l 1
 -1050 -7 l 1
 -118 925 l 1
0 843 m 1
 0 807 l 1
 -932 -125 l 1
 -968 -125 l 1
 0 843 l 1
0 643 m 1
 0 607 l 1
 -732 -125 l 1
 -768 -125 l 1
 0 643 l 1
0 443 m 1
 0 407 l 1
 -532 -125 l 1
 -568 -125 l 1
 0 443 l 1
0 243 m 1
 0 207 l 1
 -332 -125 l 1
 -368 -125 l 1
 0 243 l 1
0 43 m 1
 0 7 l 1
 -132 -125 l 1
 -168 -125 l 1
 0 43 l 1
EndSplineSet
Validated: 1
EndChar

StartChar: Dmg.Dotc.06
Encoding: 29 -1 34
Width: 0
GlyphClass: 4
Flags: HW
AnchorPoint: "Centre" -525 400 mark 0
LayerCount: 2
Fore
SplineSet
-518 925 m 1
 -482 925 l 1
 -525 882 l 1
 -525 918 l 1
 -518 925 l 1
-318 925 m 1
 -282 925 l 1
 -525 682 l 1
 -525 718 l 1
 -318 925 l 1
-118 925 m 1
 -82 925 l 1
 -525 482 l 1
 -525 518 l 1
 -118 925 l 1
0 843 m 1
 0 807 l 1
 -407 400 l 1
 -443 400 l 1
 0 843 l 1
0 643 m 1
 0 607 l 1
 -207 400 l 1
 -243 400 l 1
 0 643 l 1
0 443 m 1
 0 407 l 1
 -7 400 l 1
 -43 400 l 1
 0 443 l 1
-1043 400 m 1
 -1007 400 l 1
 -1050 357 l 1
 -1050 393 l 1
 -1043 400 l 1
-843 400 m 1
 -807 400 l 1
 -1050 157 l 1
 -1050 193 l 1
 -843 400 l 1
-643 400 m 1
 -607 400 l 1
 -1050 -43 l 1
 -1050 -7 l 1
 -643 400 l 1
-525 318 m 1
 -525 282 l 1
 -932 -125 l 1
 -968 -125 l 1
 -525 318 l 1
-525 118 m 1
 -525 82 l 1
 -732 -125 l 1
 -768 -125 l 1
 -525 118 l 1
-525 -82 m 1
 -525 -118 l 1
 -532 -125 l 1
 -568 -125 l 1
 -525 -82 l 1
EndSplineSet
Validated: 1
EndChar

StartChar: Dmg.Dotc.07
Encoding: 30 -1 35
Width: 0
GlyphClass: 4
Flags: HW
AnchorPoint: "Centre" -525 400 mark 0
LayerCount: 2
Fore
SplineSet
-918 925 m 1
 -882 925 l 1
 -1050 757 l 1
 -1050 793 l 1
 -918 925 l 1
-718 925 m 1
 -682 925 l 1
 -1050 557 l 1
 -1050 593 l 1
 -718 925 l 1
-518 925 m 1
 -482 925 l 1
 -1050 357 l 1
 -1050 393 l 1
 -518 925 l 1
-318 925 m 1
 -282 925 l 1
 -1050 157 l 1
 -1050 193 l 1
 -318 925 l 1
-118 925 m 1
 -82 925 l 1
 -1050 -43 l 1
 -1050 -7 l 1
 -118 925 l 1
0 843 m 1
 0 807 l 1
 -407 400 l 1
 -443 400 l 1
 0 843 l 1
0 643 m 1
 0 607 l 1
 -207 400 l 1
 -243 400 l 1
 0 643 l 1
0 443 m 1
 0 407 l 1
 -7 400 l 1
 -43 400 l 1
 0 443 l 1
-532 312 m 1
 -532 275 l 1
 -932 -125 l 1
 -968 -125 l 1
 -532 312 l 1
-532 112 m 1
 -532 75 l 1
 -732 -125 l 1
 -768 -125 l 1
 -532 112 l 1
-532 -88 m 1
 -532 -125 l 1
 -568 -125 l 1
 -532 -88 l 1
EndSplineSet
Validated: 1
EndChar

StartChar: Dmg.Dotc.09
Encoding: 32 -1 36
Width: 0
GlyphClass: 4
Flags: HW
AnchorPoint: "Centre" -525 400 mark 0
LayerCount: 2
Fore
SplineSet
-918 925 m 1
 -882 925 l 1
 -1050 757 l 1
 -1050 793 l 1
 -918 925 l 1
-718 925 m 1
 -682 925 l 1
 -1050 557 l 1
 -1050 593 l 1
 -718 925 l 1
-525 918 m 1
 -525 882 l 1
 -1007 400 l 1
 -1043 400 l 1
 -525 918 l 1
-525 718 m 1
 -525 682 l 1
 -807 400 l 1
 -843 400 l 1
 -525 718 l 1
-525 518 m 1
 -525 482 l 1
 -607 400 l 1
 -643 400 l 1
 -525 518 l 1
-443 400 m 1
 -407 400 l 1
 -525 282 l 1
 -525 318 l 1
 -443 400 l 1
-243 400 m 1
 -207 400 l 1
 -525 82 l 1
 -525 118 l 1
 -243 400 l 1
-43 400 m 1
 -7 400 l 1
 -525 -118 l 1
 -525 -82 l 1
 -43 400 l 1
0 243 m 1
 0 207 l 1
 -332 -125 l 1
 -368 -125 l 1
 0 243 l 1
0 43 m 1
 0 7 l 1
 -132 -125 l 1
 -168 -125 l 1
 0 43 l 1
EndSplineSet
Validated: 1
EndChar

StartChar: Dmg.Dotc.13
Encoding: 36 -1 37
Width: 0
VWidth: 1225
GlyphClass: 4
Flags: HW
AnchorPoint: "Centre" -525 400 mark 0
LayerCount: 2
Fore
SplineSet
-918 925 m 1
 -882 925 l 1
 -1050 757 l 1
 -1050 793 l 1
 -918 925 l 1
-718 925 m 1
 -682 925 l 1
 -1050 557 l 1
 -1050 593 l 1
 -718 925 l 1
-518 925 m 1
 -482 925 l 1
 -1007 400 l 1
 -1043 400 l 1
 -518 925 l 1
-318 925 m 1
 -282 925 l 1
 -807 400 l 1
 -843 400 l 1
 -318 925 l 1
-118 925 m 1
 -82 925 l 1
 -607 400 l 1
 -643 400 l 1
 -118 925 l 1
0 843 m 1
 0 807 l 1
 -525 282 l 1
 -525 318 l 1
 0 843 l 1
0 643 m 1
 0 607 l 1
 -525 82 l 1
 -525 118 l 1
 0 643 l 1
0 443 m 1
 0 407 l 1
 -525 -118 l 1
 -525 -82 l 1
 0 443 l 1
0 243 m 1
 0 207 l 1
 -332 -125 l 1
 -368 -125 l 1
 0 243 l 1
0 43 m 1
 0 7 l 1
 -132 -125 l 1
 -168 -125 l 1
 0 43 l 1
EndSplineSet
Validated: 1
EndChar

StartChar: Dmg.Dotc.14
Encoding: 37 -1 38
Width: 0
VWidth: 1225
GlyphClass: 4
Flags: HW
AnchorPoint: "Centre" -525 400 mark 0
LayerCount: 2
Fore
SplineSet
-518 925 m 1
 -482 925 l 1
 -525 882 l 1
 -525 918 l 1
 -518 925 l 1
-318 925 m 1
 -282 925 l 1
 -525 682 l 1
 -525 718 l 1
 -318 925 l 1
-118 925 m 1
 -82 925 l 1
 -525 482 l 1
 -525 518 l 1
 -118 925 l 1
0 843 m 1
 0 807 l 1
 -932 -125 l 1
 -968 -125 l 1
 0 843 l 1
0 643 m 1
 0 607 l 1
 -732 -125 l 1
 -768 -125 l 1
 0 643 l 1
0 443 m 1
 0 407 l 1
 -532 -125 l 1
 -568 -125 l 1
 0 443 l 1
-1043 400 m 1
 -1007 400 l 1
 -1050 357 l 1
 -1050 393 l 1
 -1043 400 l 1
-843 400 m 1
 -807 400 l 1
 -1050 157 l 1
 -1050 193 l 1
 -843 400 l 1
-643 400 m 1
 -607 400 l 1
 -1050 -43 l 1
 -1050 -7 l 1
 -643 400 l 1
0 243 m 1
 0 207 l 1
 -332 -125 l 1
 -368 -125 l 1
 0 243 l 1
0 43 m 1
 0 7 l 1
 -132 -125 l 1
 -168 -125 l 1
 0 43 l 1
EndSplineSet
Validated: 1
EndChar

StartChar: Stub.Vjoin
Encoding: 39 78896 39
Width: 1000
Flags: HW
LayerCount: 2
Fore
SplineSet
50 850 m 1
 150 850 l 1
 150 800 l 1
 100 800 l 1
 100 750 l 1
 50 750 l 1
 50 850 l 1
50 650 m 1
 100 650 l 1
 100 550 l 1
 50 550 l 1
 50 650 l 1
50 450 m 1
 100 450 l 1
 100 350 l 1
 50 350 l 1
 50 450 l 1
50 -50 m 1
 50 50 l 1
 100 50 l 1
 100 0 l 1
 150 0 l 1
 150 -50 l 1
 50 -50 l 1
250 0 m 1
 350 0 l 1
 350 -50 l 1
 250 -50 l 1
 250 0 l 1
450 0 m 1
 550 0 l 1
 550 -50 l 1
 450 -50 l 1
 450 0 l 1
950 -50 m 1
 850 -50 l 1
 850 0 l 1
 900 0 l 1
 900 50 l 1
 950 50 l 1
 950 -50 l 1
900 650 m 1
 950 650 l 1
 950 550 l 1
 900 550 l 1
 900 650 l 1
50 250 m 1
 100 250 l 1
 100 150 l 1
 50 150 l 1
 50 250 l 1
650 0 m 1
 750 0 l 1
 750 -50 l 1
 650 -50 l 1
 650 0 l 1
900 450 m 1
 950 450 l 1
 950 350 l 1
 900 350 l 1
 900 450 l 1
900 250 m 1
 950 250 l 1
 950 150 l 1
 900 150 l 1
 900 250 l 1
250 850 m 1
 350 850 l 1
 350 800 l 1
 250 800 l 1
 250 850 l 1
450 850 m 1
 550 850 l 1
 550 800 l 1
 450 800 l 1
 450 850 l 1
650 850 m 1
 750 850 l 1
 750 800 l 1
 650 800 l 1
 650 850 l 1
950 850 m 1
 950 750 l 1
 900 750 l 1
 900 800 l 1
 850 800 l 1
 850 850 l 1
 950 850 l 1
425 600 m 0
 425 641.420898438 458.579101562 675 500 675 c 0
 541.420898438 675 575 641.420898438 575 600 c 0
 575 558.579101562 541.420898438 525 500 525 c 0
 458.579101562 525 425 558.579101562 425 600 c 0
425 200 m 0
 425 241.420898438 458.579101562 275 500 275 c 0
 541.420898438 275 575 241.420898438 575 200 c 0
 575 158.579101562 541.420898438 125 500 125 c 0
 458.579101562 125 425 158.579101562 425 200 c 0
EndSplineSet
Validated: 524289
EndChar

StartChar: Stub.Hjoin
Encoding: 40 78897 40
Width: 1000
Flags: HW
LayerCount: 2
Fore
SplineSet
50 850 m 1
 150 850 l 1
 150 800 l 1
 100 800 l 1
 100 750 l 1
 50 750 l 1
 50 850 l 1
50 650 m 1
 100 650 l 1
 100 550 l 1
 50 550 l 1
 50 650 l 1
50 450 m 1
 100 450 l 1
 100 350 l 1
 50 350 l 1
 50 450 l 1
50 -50 m 1
 50 50 l 1
 100 50 l 1
 100 0 l 1
 150 0 l 1
 150 -50 l 1
 50 -50 l 1
250 0 m 1
 350 0 l 1
 350 -50 l 1
 250 -50 l 1
 250 0 l 1
450 0 m 1
 550 0 l 1
 550 -50 l 1
 450 -50 l 1
 450 0 l 1
950 -50 m 1
 850 -50 l 1
 850 0 l 1
 900 0 l 1
 900 50 l 1
 950 50 l 1
 950 -50 l 1
900 650 m 1
 950 650 l 1
 950 550 l 1
 900 550 l 1
 900 650 l 1
50 250 m 1
 100 250 l 1
 100 150 l 1
 50 150 l 1
 50 250 l 1
650 0 m 1
 750 0 l 1
 750 -50 l 1
 650 -50 l 1
 650 0 l 1
900 450 m 1
 950 450 l 1
 950 350 l 1
 900 350 l 1
 900 450 l 1
900 250 m 1
 950 250 l 1
 950 150 l 1
 900 150 l 1
 900 250 l 1
250 850 m 1
 350 850 l 1
 350 800 l 1
 250 800 l 1
 250 850 l 1
450 850 m 1
 550 850 l 1
 550 800 l 1
 450 800 l 1
 450 850 l 1
650 850 m 1
 750 850 l 1
 750 800 l 1
 650 800 l 1
 650 850 l 1
950 850 m 1
 950 750 l 1
 900 750 l 1
 900 800 l 1
 850 800 l 1
 850 850 l 1
 950 850 l 1
335.065429688 633.986328125 m 0
 335.065429688 650.676965457 348.66877702 664.00390625 365.092773438 664.00390625 c 0
 376.20703125 664.00390625 385.89453125 657.986328125 391.080078125 649.005859375 c 2
 500.201171875 460 l 1
 500.201171875 460 609.274414062 648.974609375 609.32421875 649.005859375 c 0
 614.509765625 657.987304688 624.166015625 664.005859375 635.2734375 664.005859375 c 0
 651.787206172 664.005859375 665.28515625 650.675665054 665.28515625 633.973632812 c 0
 665.28515625 628.524414062 663.829101562 623.412109375 661.28515625 619.005859375 c 2
 552.1640625 430 l 1
 770.408203125 430 l 2
 786.965820312 430 800.408203125 416.557617188 800.408203125 400 c 0
 800.408203125 383.442382812 786.965820312 370 770.408203125 370 c 2
 552.1640625 370 l 1
 661.28515625 180.994140625 l 2
 663.829101562 176.587890625 665.336914062 171.462890625 665.336914062 166.013671875 c 0
 665.336914062 149.118162795 651.461639542 135.961914062 635.32421875 135.961914062 c 0
 624.215820312 135.961914062 614.509765625 142.012695312 609.32421875 150.994140625 c 2
 500.201171875 340 l 1
 500.201171875 340 391.067382812 151.044921875 391.080078125 150.994140625 c 0
 385.89453125 142.01171875 376.174804688 136.012695312 365.06640625 136.012695312 c 0
 348.525469497 136.012695312 335.1171875 149.401279759 335.1171875 166.026367188 c 0
 335.1171875 171.475585938 336.573242188 176.587890625 339.1171875 180.994140625 c 2
 448.240234375 370 l 1
 229.99609375 370 l 2
 213.438476562 370 199.99609375 383.442382812 199.99609375 400 c 0
 199.99609375 416.557617188 213.438476562 430 229.99609375 430 c 2
 448.240234375 430 l 1
 339.1171875 619.005859375 l 2
 336.573242188 623.412109375 335.065429688 628.537109375 335.065429688 633.986328125 c 0
EndSplineSet
Validated: 524321
EndChar

StartChar: Stub.TopStart
Encoding: 41 78898 41
Width: 1000
Flags: HW
LayerCount: 2
Fore
SplineSet
50 850 m 1
 150 850 l 1
 150 800 l 1
 100 800 l 1
 100 750 l 1
 50 750 l 1
 50 850 l 1
50 650 m 1
 100 650 l 1
 100 550 l 1
 50 550 l 1
 50 650 l 1
50 450 m 1
 100 450 l 1
 100 350 l 1
 50 350 l 1
 50 450 l 1
50 -50 m 1
 50 50 l 1
 100 50 l 1
 100 0 l 1
 150 0 l 1
 150 -50 l 1
 50 -50 l 1
250 0 m 1
 350 0 l 1
 350 -50 l 1
 250 -50 l 1
 250 0 l 1
450 0 m 1
 550 0 l 1
 550 -50 l 1
 450 -50 l 1
 450 0 l 1
950 -50 m 1
 850 -50 l 1
 850 0 l 1
 900 0 l 1
 900 50 l 1
 950 50 l 1
 950 -50 l 1
900 650 m 1
 950 650 l 1
 950 550 l 1
 900 550 l 1
 900 650 l 1
50 250 m 1
 100 250 l 1
 100 150 l 1
 50 150 l 1
 50 250 l 1
650 0 m 1
 750 0 l 1
 750 -50 l 1
 650 -50 l 1
 650 0 l 1
900 450 m 1
 950 450 l 1
 950 350 l 1
 900 350 l 1
 900 450 l 1
900 250 m 1
 950 250 l 1
 950 150 l 1
 900 150 l 1
 900 250 l 1
250 850 m 1
 350 850 l 1
 350 800 l 1
 250 800 l 1
 250 850 l 1
450 850 m 1
 550 850 l 1
 550 800 l 1
 450 800 l 1
 450 850 l 1
650 850 m 1
 750 850 l 1
 750 800 l 1
 650 800 l 1
 650 850 l 1
950 850 m 1
 950 750 l 1
 900 750 l 1
 900 800 l 1
 850 800 l 1
 850 850 l 1
 950 850 l 1
200 700 m 1
 400 700 l 1
 400 500 l 1
 200 500 l 1
 200 700 l 1
800 100 m 1
 200 100 l 1
 200 300 l 1
 600 300 l 1
 600 700 l 1
 800 700 l 1
 800 100 l 1
EndSplineSet
Validated: 1
EndChar

StartChar: Stub.BotStart
Encoding: 42 78899 42
Width: 1000
Flags: HW
LayerCount: 2
Fore
SplineSet
50 850 m 1
 150 850 l 1
 150 800 l 1
 100 800 l 1
 100 750 l 1
 50 750 l 1
 50 850 l 1
50 650 m 1
 100 650 l 1
 100 550 l 1
 50 550 l 1
 50 650 l 1
50 450 m 1
 100 450 l 1
 100 350 l 1
 50 350 l 1
 50 450 l 1
50 -50 m 1
 50 50 l 1
 100 50 l 1
 100 0 l 1
 150 0 l 1
 150 -50 l 1
 50 -50 l 1
250 0 m 1
 350 0 l 1
 350 -50 l 1
 250 -50 l 1
 250 0 l 1
450 0 m 1
 550 0 l 1
 550 -50 l 1
 450 -50 l 1
 450 0 l 1
950 -50 m 1
 850 -50 l 1
 850 0 l 1
 900 0 l 1
 900 50 l 1
 950 50 l 1
 950 -50 l 1
900 650 m 1
 950 650 l 1
 950 550 l 1
 900 550 l 1
 900 650 l 1
50 250 m 1
 100 250 l 1
 100 150 l 1
 50 150 l 1
 50 250 l 1
650 0 m 1
 750 0 l 1
 750 -50 l 1
 650 -50 l 1
 650 0 l 1
900 450 m 1
 950 450 l 1
 950 350 l 1
 900 350 l 1
 900 450 l 1
900 250 m 1
 950 250 l 1
 950 150 l 1
 900 150 l 1
 900 250 l 1
250 850 m 1
 350 850 l 1
 350 800 l 1
 250 800 l 1
 250 850 l 1
450 850 m 1
 550 850 l 1
 550 800 l 1
 450 800 l 1
 450 850 l 1
650 850 m 1
 750 850 l 1
 750 800 l 1
 650 800 l 1
 650 850 l 1
950 850 m 1
 950 750 l 1
 900 750 l 1
 900 800 l 1
 850 800 l 1
 850 850 l 1
 950 850 l 1
200 100 m 1
 200 300 l 1
 400 300 l 1
 400 100 l 1
 200 100 l 1
800 700 m 1
 800 100 l 1
 600 100 l 1
 600 500 l 1
 200 500 l 1
 200 700 l 1
 800 700 l 1
EndSplineSet
Validated: 1
EndChar

StartChar: Stub.TopEnd
Encoding: 43 78900 43
Width: 1000
Flags: HW
LayerCount: 2
Fore
SplineSet
50 850 m 1
 150 850 l 1
 150 800 l 1
 100 800 l 1
 100 750 l 1
 50 750 l 1
 50 850 l 1
50 650 m 1
 100 650 l 1
 100 550 l 1
 50 550 l 1
 50 650 l 1
50 450 m 1
 100 450 l 1
 100 350 l 1
 50 350 l 1
 50 450 l 1
50 -50 m 1
 50 50 l 1
 100 50 l 1
 100 0 l 1
 150 0 l 1
 150 -50 l 1
 50 -50 l 1
250 0 m 1
 350 0 l 1
 350 -50 l 1
 250 -50 l 1
 250 0 l 1
450 0 m 1
 550 0 l 1
 550 -50 l 1
 450 -50 l 1
 450 0 l 1
950 -50 m 1
 850 -50 l 1
 850 0 l 1
 900 0 l 1
 900 50 l 1
 950 50 l 1
 950 -50 l 1
900 650 m 1
 950 650 l 1
 950 550 l 1
 900 550 l 1
 900 650 l 1
50 250 m 1
 100 250 l 1
 100 150 l 1
 50 150 l 1
 50 250 l 1
650 0 m 1
 750 0 l 1
 750 -50 l 1
 650 -50 l 1
 650 0 l 1
900 450 m 1
 950 450 l 1
 950 350 l 1
 900 350 l 1
 900 450 l 1
900 250 m 1
 950 250 l 1
 950 150 l 1
 900 150 l 1
 900 250 l 1
250 850 m 1
 350 850 l 1
 350 800 l 1
 250 800 l 1
 250 850 l 1
450 850 m 1
 550 850 l 1
 550 800 l 1
 450 800 l 1
 450 850 l 1
650 850 m 1
 750 850 l 1
 750 800 l 1
 650 800 l 1
 650 850 l 1
950 850 m 1
 950 750 l 1
 900 750 l 1
 900 800 l 1
 850 800 l 1
 850 850 l 1
 950 850 l 1
800 700 m 1
 800 500 l 1
 600 500 l 1
 600 700 l 1
 800 700 l 1
200 100 m 1
 200 700 l 1
 400 700 l 1
 400 300 l 1
 800 300 l 1
 800 100 l 1
 200 100 l 1
EndSplineSet
Validated: 1
EndChar

StartChar: Stub.BotEnd
Encoding: 44 78901 44
Width: 1000
Flags: HW
LayerCount: 2
Fore
SplineSet
50 850 m 1
 150 850 l 1
 150 800 l 1
 100 800 l 1
 100 750 l 1
 50 750 l 1
 50 850 l 1
50 650 m 1
 100 650 l 1
 100 550 l 1
 50 550 l 1
 50 650 l 1
50 450 m 1
 100 450 l 1
 100 350 l 1
 50 350 l 1
 50 450 l 1
50 -50 m 1
 50 50 l 1
 100 50 l 1
 100 0 l 1
 150 0 l 1
 150 -50 l 1
 50 -50 l 1
250 0 m 1
 350 0 l 1
 350 -50 l 1
 250 -50 l 1
 250 0 l 1
450 0 m 1
 550 0 l 1
 550 -50 l 1
 450 -50 l 1
 450 0 l 1
950 -50 m 1
 850 -50 l 1
 850 0 l 1
 900 0 l 1
 900 50 l 1
 950 50 l 1
 950 -50 l 1
900 650 m 1
 950 650 l 1
 950 550 l 1
 900 550 l 1
 900 650 l 1
50 250 m 1
 100 250 l 1
 100 150 l 1
 50 150 l 1
 50 250 l 1
650 0 m 1
 750 0 l 1
 750 -50 l 1
 650 -50 l 1
 650 0 l 1
900 450 m 1
 950 450 l 1
 950 350 l 1
 900 350 l 1
 900 450 l 1
900 250 m 1
 950 250 l 1
 950 150 l 1
 900 150 l 1
 900 250 l 1
250 850 m 1
 350 850 l 1
 350 800 l 1
 250 800 l 1
 250 850 l 1
450 850 m 1
 550 850 l 1
 550 800 l 1
 450 800 l 1
 450 850 l 1
650 850 m 1
 750 850 l 1
 750 800 l 1
 650 800 l 1
 650 850 l 1
950 850 m 1
 950 750 l 1
 900 750 l 1
 900 800 l 1
 850 800 l 1
 850 850 l 1
 950 850 l 1
800 100 m 1
 600 100 l 1
 600 300 l 1
 800 300 l 1
 800 100 l 1
200 700 m 1
 800 700 l 1
 800 500 l 1
 400 500 l 1
 400 100 l 1
 200 100 l 1
 200 700 l 1
EndSplineSet
Validated: 1
EndChar

StartChar: Stub.Ovr
Encoding: 45 78902 45
Width: 1000
Flags: HW
LayerCount: 2
Fore
SplineSet
50 850 m 1
 150 850 l 1
 150 800 l 1
 100 800 l 1
 100 750 l 1
 50 750 l 1
 50 850 l 1
50 650 m 1
 100 650 l 1
 100 550 l 1
 50 550 l 1
 50 650 l 1
50 450 m 1
 100 450 l 1
 100 350 l 1
 50 350 l 1
 50 450 l 1
50 -50 m 1
 50 50 l 1
 100 50 l 1
 100 0 l 1
 150 0 l 1
 150 -50 l 1
 50 -50 l 1
250 0 m 1
 350 0 l 1
 350 -50 l 1
 250 -50 l 1
 250 0 l 1
450 0 m 1
 550 0 l 1
 550 -50 l 1
 450 -50 l 1
 450 0 l 1
950 -50 m 1
 850 -50 l 1
 850 0 l 1
 900 0 l 1
 900 50 l 1
 950 50 l 1
 950 -50 l 1
900 650 m 1
 950 650 l 1
 950 550 l 1
 900 550 l 1
 900 650 l 1
50 250 m 1
 100 250 l 1
 100 150 l 1
 50 150 l 1
 50 250 l 1
650 0 m 1
 750 0 l 1
 750 -50 l 1
 650 -50 l 1
 650 0 l 1
900 450 m 1
 950 450 l 1
 950 350 l 1
 900 350 l 1
 900 450 l 1
900 250 m 1
 950 250 l 1
 950 150 l 1
 900 150 l 1
 900 250 l 1
250 850 m 1
 350 850 l 1
 350 800 l 1
 250 800 l 1
 250 850 l 1
450 850 m 1
 550 850 l 1
 550 800 l 1
 450 800 l 1
 450 850 l 1
650 850 m 1
 750 850 l 1
 750 800 l 1
 650 800 l 1
 650 850 l 1
950 850 m 1
 950 750 l 1
 900 750 l 1
 900 800 l 1
 850 800 l 1
 850 850 l 1
 950 850 l 1
450 675 m 1
 550 675 l 1
 550 450 l 1
 775 450 l 1
 775 350 l 1
 550 350 l 1
 550 125 l 1
 450 125 l 1
 450 350 l 1
 225 350 l 1
 225 450 l 1
 450 450 l 1
 450 675 l 1
EndSplineSet
Validated: 1
EndChar

StartChar: Stub.BegSeg
Encoding: 46 78903 46
Width: 1000
Flags: HW
LayerCount: 2
Fore
SplineSet
50 850 m 1
 150 850 l 1
 150 800 l 1
 100 800 l 1
 100 750 l 1
 50 750 l 1
 50 850 l 1
50 650 m 1
 100 650 l 1
 100 550 l 1
 50 550 l 1
 50 650 l 1
50 450 m 1
 100 450 l 1
 100 350 l 1
 50 350 l 1
 50 450 l 1
50 -50 m 1
 50 50 l 1
 100 50 l 1
 100 0 l 1
 150 0 l 1
 150 -50 l 1
 50 -50 l 1
250 0 m 1
 350 0 l 1
 350 -50 l 1
 250 -50 l 1
 250 0 l 1
450 0 m 1
 550 0 l 1
 550 -50 l 1
 450 -50 l 1
 450 0 l 1
950 -50 m 1
 850 -50 l 1
 850 0 l 1
 900 0 l 1
 900 50 l 1
 950 50 l 1
 950 -50 l 1
900 650 m 1
 950 650 l 1
 950 550 l 1
 900 550 l 1
 900 650 l 1
50 250 m 1
 100 250 l 1
 100 150 l 1
 50 150 l 1
 50 250 l 1
650 0 m 1
 750 0 l 1
 750 -50 l 1
 650 -50 l 1
 650 0 l 1
900 450 m 1
 950 450 l 1
 950 350 l 1
 900 350 l 1
 900 450 l 1
900 250 m 1
 950 250 l 1
 950 150 l 1
 900 150 l 1
 900 250 l 1
250 850 m 1
 350 850 l 1
 350 800 l 1
 250 800 l 1
 250 850 l 1
450 850 m 1
 550 850 l 1
 550 800 l 1
 450 800 l 1
 450 850 l 1
650 850 m 1
 750 850 l 1
 750 800 l 1
 650 800 l 1
 650 850 l 1
950 850 m 1
 950 750 l 1
 900 750 l 1
 900 800 l 1
 850 800 l 1
 850 850 l 1
 950 850 l 1
504 400 m 0
 504 279 555 188 587 142 c 1
 523 100 l 1
 432 206 413 322 413 400 c 0
 413 478 432 594 523 700 c 1
 587 658 l 1
 555 612 504 522 504 400 c 0
EndSplineSet
Validated: 1
EndChar

StartChar: Stub.EndSeg
Encoding: 47 78904 47
Width: 1000
Flags: HW
LayerCount: 2
Fore
SplineSet
50 850 m 1
 150 850 l 1
 150 800 l 1
 100 800 l 1
 100 750 l 1
 50 750 l 1
 50 850 l 1
50 650 m 1
 100 650 l 1
 100 550 l 1
 50 550 l 1
 50 650 l 1
50 450 m 1
 100 450 l 1
 100 350 l 1
 50 350 l 1
 50 450 l 1
50 -50 m 1
 50 50 l 1
 100 50 l 1
 100 0 l 1
 150 0 l 1
 150 -50 l 1
 50 -50 l 1
250 0 m 1
 350 0 l 1
 350 -50 l 1
 250 -50 l 1
 250 0 l 1
450 0 m 1
 550 0 l 1
 550 -50 l 1
 450 -50 l 1
 450 0 l 1
950 -50 m 1
 850 -50 l 1
 850 0 l 1
 900 0 l 1
 900 50 l 1
 950 50 l 1
 950 -50 l 1
900 650 m 1
 950 650 l 1
 950 550 l 1
 900 550 l 1
 900 650 l 1
50 250 m 1
 100 250 l 1
 100 150 l 1
 50 150 l 1
 50 250 l 1
650 0 m 1
 750 0 l 1
 750 -50 l 1
 650 -50 l 1
 650 0 l 1
900 450 m 1
 950 450 l 1
 950 350 l 1
 900 350 l 1
 900 450 l 1
900 250 m 1
 950 250 l 1
 950 150 l 1
 900 150 l 1
 900 250 l 1
250 850 m 1
 350 850 l 1
 350 800 l 1
 250 800 l 1
 250 850 l 1
450 850 m 1
 550 850 l 1
 550 800 l 1
 450 800 l 1
 450 850 l 1
650 850 m 1
 750 850 l 1
 750 800 l 1
 650 800 l 1
 650 850 l 1
950 850 m 1
 950 750 l 1
 900 750 l 1
 900 800 l 1
 850 800 l 1
 850 850 l 1
 950 850 l 1
496 400 m 0
 496 522 445 612 413 658 c 1
 477 700 l 1
 568 594 587 478 587 400 c 0
 587 322 568 206 477 100 c 1
 413 142 l 1
 445 188 496 279 496 400 c 0
EndSplineSet
Validated: 1
EndChar

StartChar: Stub.Mid
Encoding: 48 78905 48
Width: 1000
Flags: HW
LayerCount: 2
Fore
SplineSet
50 850 m 1
 150 850 l 1
 150 800 l 1
 100 800 l 1
 100 750 l 1
 50 750 l 1
 50 850 l 1
50 650 m 1
 100 650 l 1
 100 550 l 1
 50 550 l 1
 50 650 l 1
50 450 m 1
 100 450 l 1
 100 350 l 1
 50 350 l 1
 50 450 l 1
50 -50 m 1
 50 50 l 1
 100 50 l 1
 100 0 l 1
 150 0 l 1
 150 -50 l 1
 50 -50 l 1
250 0 m 1
 350 0 l 1
 350 -50 l 1
 250 -50 l 1
 250 0 l 1
450 0 m 1
 550 0 l 1
 550 -50 l 1
 450 -50 l 1
 450 0 l 1
950 -50 m 1
 850 -50 l 1
 850 0 l 1
 900 0 l 1
 900 50 l 1
 950 50 l 1
 950 -50 l 1
900 650 m 1
 950 650 l 1
 950 550 l 1
 900 550 l 1
 900 650 l 1
50 250 m 1
 100 250 l 1
 100 150 l 1
 50 150 l 1
 50 250 l 1
650 0 m 1
 750 0 l 1
 750 -50 l 1
 650 -50 l 1
 650 0 l 1
900 450 m 1
 950 450 l 1
 950 350 l 1
 900 350 l 1
 900 450 l 1
900 250 m 1
 950 250 l 1
 950 150 l 1
 900 150 l 1
 900 250 l 1
250 850 m 1
 350 850 l 1
 350 800 l 1
 250 800 l 1
 250 850 l 1
450 850 m 1
 550 850 l 1
 550 800 l 1
 450 800 l 1
 450 850 l 1
650 850 m 1
 750 850 l 1
 750 800 l 1
 650 800 l 1
 650 850 l 1
950 850 m 1
 950 750 l 1
 900 750 l 1
 900 800 l 1
 850 800 l 1
 850 850 l 1
 950 850 l 1
400 500 m 1
 600 500 l 1
 600 300 l 1
 400 300 l 1
 400 500 l 1
300 600 m 1
 300 200 l 1
 700 200 l 1
 700 600 l 1
 300 600 l 1
200 700 m 1
 800 700 l 1
 800 100 l 1
 200 100 l 1
 200 700 l 1
EndSplineSet
Validated: 1
EndChar

StartChar: Stub.Top
Encoding: 49 78906 49
Width: 1000
Flags: HW
LayerCount: 2
Fore
SplineSet
50 850 m 1
 150 850 l 1
 150 800 l 1
 100 800 l 1
 100 750 l 1
 50 750 l 1
 50 850 l 1
50 650 m 1
 100 650 l 1
 100 550 l 1
 50 550 l 1
 50 650 l 1
50 450 m 1
 100 450 l 1
 100 350 l 1
 50 350 l 1
 50 450 l 1
50 -50 m 1
 50 50 l 1
 100 50 l 1
 100 0 l 1
 150 0 l 1
 150 -50 l 1
 50 -50 l 1
250 0 m 1
 350 0 l 1
 350 -50 l 1
 250 -50 l 1
 250 0 l 1
450 0 m 1
 550 0 l 1
 550 -50 l 1
 450 -50 l 1
 450 0 l 1
950 -50 m 1
 850 -50 l 1
 850 0 l 1
 900 0 l 1
 900 50 l 1
 950 50 l 1
 950 -50 l 1
900 650 m 1
 950 650 l 1
 950 550 l 1
 900 550 l 1
 900 650 l 1
50 250 m 1
 100 250 l 1
 100 150 l 1
 50 150 l 1
 50 250 l 1
650 0 m 1
 750 0 l 1
 750 -50 l 1
 650 -50 l 1
 650 0 l 1
900 450 m 1
 950 450 l 1
 950 350 l 1
 900 350 l 1
 900 450 l 1
900 250 m 1
 950 250 l 1
 950 150 l 1
 900 150 l 1
 900 250 l 1
250 850 m 1
 350 850 l 1
 350 800 l 1
 250 800 l 1
 250 850 l 1
450 850 m 1
 550 850 l 1
 550 800 l 1
 450 800 l 1
 450 850 l 1
650 850 m 1
 750 850 l 1
 750 800 l 1
 650 800 l 1
 650 850 l 1
950 850 m 1
 950 750 l 1
 900 750 l 1
 900 800 l 1
 850 800 l 1
 850 850 l 1
 950 850 l 1
200 700 m 1
 300 700 l 1
 300 325 l 1
 700 325 l 1
 700 700 l 1
 800 700 l 1
 800 100 l 1
 200 100 l 1
 200 700 l 1
400 700 m 1
 600 700 l 1
 600 425 l 1
 400 425 l 1
 400 700 l 1
EndSplineSet
Validated: 1
EndChar

StartChar: Stub.Bot
Encoding: 50 78907 50
Width: 1000
Flags: HW
LayerCount: 2
Fore
SplineSet
50 850 m 1
 150 850 l 1
 150 800 l 1
 100 800 l 1
 100 750 l 1
 50 750 l 1
 50 850 l 1
50 650 m 1
 100 650 l 1
 100 550 l 1
 50 550 l 1
 50 650 l 1
50 450 m 1
 100 450 l 1
 100 350 l 1
 50 350 l 1
 50 450 l 1
50 -50 m 1
 50 50 l 1
 100 50 l 1
 100 0 l 1
 150 0 l 1
 150 -50 l 1
 50 -50 l 1
250 0 m 1
 350 0 l 1
 350 -50 l 1
 250 -50 l 1
 250 0 l 1
450 0 m 1
 550 0 l 1
 550 -50 l 1
 450 -50 l 1
 450 0 l 1
950 -50 m 1
 850 -50 l 1
 850 0 l 1
 900 0 l 1
 900 50 l 1
 950 50 l 1
 950 -50 l 1
900 650 m 1
 950 650 l 1
 950 550 l 1
 900 550 l 1
 900 650 l 1
50 250 m 1
 100 250 l 1
 100 150 l 1
 50 150 l 1
 50 250 l 1
650 0 m 1
 750 0 l 1
 750 -50 l 1
 650 -50 l 1
 650 0 l 1
900 450 m 1
 950 450 l 1
 950 350 l 1
 900 350 l 1
 900 450 l 1
900 250 m 1
 950 250 l 1
 950 150 l 1
 900 150 l 1
 900 250 l 1
250 850 m 1
 350 850 l 1
 350 800 l 1
 250 800 l 1
 250 850 l 1
450 850 m 1
 550 850 l 1
 550 800 l 1
 450 800 l 1
 450 850 l 1
650 850 m 1
 750 850 l 1
 750 800 l 1
 650 800 l 1
 650 850 l 1
950 850 m 1
 950 750 l 1
 900 750 l 1
 900 800 l 1
 850 800 l 1
 850 850 l 1
 950 850 l 1
200 100 m 1
 200 700 l 1
 800 700 l 1
 800 100 l 1
 700 100 l 1
 700 475 l 1
 300 475 l 1
 300 100 l 1
 200 100 l 1
400 100 m 1
 400 375 l 1
 600 375 l 1
 600 100 l 1
 400 100 l 1
EndSplineSet
Validated: 1
EndChar

StartChar: Stub.BegEncl
Encoding: 51 78908 51
Width: 1000
Flags: HW
LayerCount: 2
Fore
SplineSet
50 850 m 1
 150 850 l 1
 150 800 l 1
 100 800 l 1
 100 750 l 1
 50 750 l 1
 50 850 l 1
50 650 m 1
 100 650 l 1
 100 550 l 1
 50 550 l 1
 50 650 l 1
50 450 m 1
 100 450 l 1
 100 350 l 1
 50 350 l 1
 50 450 l 1
50 -50 m 1
 50 50 l 1
 100 50 l 1
 100 0 l 1
 150 0 l 1
 150 -50 l 1
 50 -50 l 1
250 0 m 1
 350 0 l 1
 350 -50 l 1
 250 -50 l 1
 250 0 l 1
450 0 m 1
 550 0 l 1
 550 -50 l 1
 450 -50 l 1
 450 0 l 1
950 -50 m 1
 850 -50 l 1
 850 0 l 1
 900 0 l 1
 900 50 l 1
 950 50 l 1
 950 -50 l 1
900 650 m 1
 950 650 l 1
 950 550 l 1
 900 550 l 1
 900 650 l 1
50 250 m 1
 100 250 l 1
 100 150 l 1
 50 150 l 1
 50 250 l 1
650 0 m 1
 750 0 l 1
 750 -50 l 1
 650 -50 l 1
 650 0 l 1
900 450 m 1
 950 450 l 1
 950 350 l 1
 900 350 l 1
 900 450 l 1
900 250 m 1
 950 250 l 1
 950 150 l 1
 900 150 l 1
 900 250 l 1
250 850 m 1
 350 850 l 1
 350 800 l 1
 250 800 l 1
 250 850 l 1
450 850 m 1
 550 850 l 1
 550 800 l 1
 450 800 l 1
 450 850 l 1
650 850 m 1
 750 850 l 1
 750 800 l 1
 650 800 l 1
 650 850 l 1
950 850 m 1
 950 750 l 1
 900 750 l 1
 900 800 l 1
 850 800 l 1
 850 850 l 1
 950 850 l 1
275 700 m 1
 725 700 l 1
 725 640 l 1
 335 640 l 1
 335 160 l 1
 725 160 l 1
 725 100 l 1
 275 100 l 1
 275 700 l 1
598 487 m 1
 625 487 l 1
 656 450 690 423 725 405 c 1
 725 391 l 1
 690 373 656 346 625 309 c 1
 598 309 l 1
 611 336 623 358 635 374 c 1
 406 374 l 1
 406 382 l 1
 406 414 l 1
 406 426 l 1
 633 426 l 1
 622 442 610 462 598 487 c 1
EndSplineSet
Validated: 1
EndChar

StartChar: Stub.EndEncl
Encoding: 52 78909 52
Width: 1000
Flags: HW
LayerCount: 2
Fore
SplineSet
50 850 m 1
 150 850 l 1
 150 800 l 1
 100 800 l 1
 100 750 l 1
 50 750 l 1
 50 850 l 1
50 650 m 1
 100 650 l 1
 100 550 l 1
 50 550 l 1
 50 650 l 1
50 450 m 1
 100 450 l 1
 100 350 l 1
 50 350 l 1
 50 450 l 1
50 -50 m 1
 50 50 l 1
 100 50 l 1
 100 0 l 1
 150 0 l 1
 150 -50 l 1
 50 -50 l 1
250 0 m 1
 350 0 l 1
 350 -50 l 1
 250 -50 l 1
 250 0 l 1
450 0 m 1
 550 0 l 1
 550 -50 l 1
 450 -50 l 1
 450 0 l 1
950 -50 m 1
 850 -50 l 1
 850 0 l 1
 900 0 l 1
 900 50 l 1
 950 50 l 1
 950 -50 l 1
900 650 m 1
 950 650 l 1
 950 550 l 1
 900 550 l 1
 900 650 l 1
50 250 m 1
 100 250 l 1
 100 150 l 1
 50 150 l 1
 50 250 l 1
650 0 m 1
 750 0 l 1
 750 -50 l 1
 650 -50 l 1
 650 0 l 1
900 450 m 1
 950 450 l 1
 950 350 l 1
 900 350 l 1
 900 450 l 1
900 250 m 1
 950 250 l 1
 950 150 l 1
 900 150 l 1
 900 250 l 1
250 850 m 1
 350 850 l 1
 350 800 l 1
 250 800 l 1
 250 850 l 1
450 850 m 1
 550 850 l 1
 550 800 l 1
 450 800 l 1
 450 850 l 1
650 850 m 1
 750 850 l 1
 750 800 l 1
 650 800 l 1
 650 850 l 1
950 850 m 1
 950 750 l 1
 900 750 l 1
 900 800 l 1
 850 800 l 1
 850 850 l 1
 950 850 l 1
725 700 m 1
 725 100 l 1
 275 100 l 1
 275 160 l 1
 665 160 l 1
 665 640 l 1
 275 640 l 1
 275 700 l 1
 725 700 l 1
402 487 m 1
 390 462 378 442 367 426 c 1
 594 426 l 1
 594 414 l 1
 594 382 l 1
 594 374 l 1
 365 374 l 1
 377 358 389 336 402 309 c 1
 375 309 l 1
 344 346 310 373 275 391 c 1
 275 405 l 1
 310 423 344 450 375 487 c 1
 402 487 l 1
EndSplineSet
Validated: 1
EndChar

StartChar: Stub.BegWall
Encoding: 53 78910 53
Width: 1000
Flags: HW
LayerCount: 2
Fore
SplineSet
50 850 m 1
 150 850 l 1
 150 800 l 1
 100 800 l 1
 100 750 l 1
 50 750 l 1
 50 850 l 1
50 650 m 1
 100 650 l 1
 100 550 l 1
 50 550 l 1
 50 650 l 1
50 450 m 1
 100 450 l 1
 100 350 l 1
 50 350 l 1
 50 450 l 1
50 -50 m 1
 50 50 l 1
 100 50 l 1
 100 0 l 1
 150 0 l 1
 150 -50 l 1
 50 -50 l 1
250 0 m 1
 350 0 l 1
 350 -50 l 1
 250 -50 l 1
 250 0 l 1
450 0 m 1
 550 0 l 1
 550 -50 l 1
 450 -50 l 1
 450 0 l 1
950 -50 m 1
 850 -50 l 1
 850 0 l 1
 900 0 l 1
 900 50 l 1
 950 50 l 1
 950 -50 l 1
900 650 m 1
 950 650 l 1
 950 550 l 1
 900 550 l 1
 900 650 l 1
50 250 m 1
 100 250 l 1
 100 150 l 1
 50 150 l 1
 50 250 l 1
650 0 m 1
 750 0 l 1
 750 -50 l 1
 650 -50 l 1
 650 0 l 1
900 450 m 1
 950 450 l 1
 950 350 l 1
 900 350 l 1
 900 450 l 1
900 250 m 1
 950 250 l 1
 950 150 l 1
 900 150 l 1
 900 250 l 1
250 850 m 1
 350 850 l 1
 350 800 l 1
 250 800 l 1
 250 850 l 1
450 850 m 1
 550 850 l 1
 550 800 l 1
 450 800 l 1
 450 850 l 1
650 850 m 1
 750 850 l 1
 750 800 l 1
 650 800 l 1
 650 850 l 1
950 850 m 1
 950 750 l 1
 900 750 l 1
 900 800 l 1
 850 800 l 1
 850 850 l 1
 950 850 l 1
365 700 m 1
 472 700 l 1
 472 645 l 1
 577 645 l 1
 577 700 l 1
 684 700 l 1
 684 645 l 1
 684 596 l 1
 472 596 l 1
 365 596 l 1
 365 204 l 1
 472 204 l 1
 684 204 l 1
 684 100 l 1
 577 100 l 1
 577 155 l 1
 472 155 l 1
 472 100 l 1
 365 100 l 1
 365 155 l 1
 316 155 l 1
 316 645 l 1
 365 645 l 1
 365 700 l 1
580 471 m 1
 602 471 l 1
 628 441 655 419 684 404 c 1
 684 393 l 1
 655 378 628 356 602 326 c 1
 580 326 l 1
 591 348 601 366 611 379 c 1
 423 379 l 1
 423 385 l 1
 423 411 l 1
 423 421 l 1
 608 421 l 1
 599 434 590 451 580 471 c 1
EndSplineSet
Validated: 1
EndChar

StartChar: Stub.EndWall
Encoding: 54 78911 54
Width: 1000
Flags: HW
LayerCount: 2
Fore
SplineSet
50 850 m 1
 150 850 l 1
 150 800 l 1
 100 800 l 1
 100 750 l 1
 50 750 l 1
 50 850 l 1
50 650 m 1
 100 650 l 1
 100 550 l 1
 50 550 l 1
 50 650 l 1
50 450 m 1
 100 450 l 1
 100 350 l 1
 50 350 l 1
 50 450 l 1
50 -50 m 1
 50 50 l 1
 100 50 l 1
 100 0 l 1
 150 0 l 1
 150 -50 l 1
 50 -50 l 1
250 0 m 1
 350 0 l 1
 350 -50 l 1
 250 -50 l 1
 250 0 l 1
450 0 m 1
 550 0 l 1
 550 -50 l 1
 450 -50 l 1
 450 0 l 1
950 -50 m 1
 850 -50 l 1
 850 0 l 1
 900 0 l 1
 900 50 l 1
 950 50 l 1
 950 -50 l 1
900 650 m 1
 950 650 l 1
 950 550 l 1
 900 550 l 1
 900 650 l 1
50 250 m 1
 100 250 l 1
 100 150 l 1
 50 150 l 1
 50 250 l 1
650 0 m 1
 750 0 l 1
 750 -50 l 1
 650 -50 l 1
 650 0 l 1
900 450 m 1
 950 450 l 1
 950 350 l 1
 900 350 l 1
 900 450 l 1
900 250 m 1
 950 250 l 1
 950 150 l 1
 900 150 l 1
 900 250 l 1
250 850 m 1
 350 850 l 1
 350 800 l 1
 250 800 l 1
 250 850 l 1
450 850 m 1
 550 850 l 1
 550 800 l 1
 450 800 l 1
 450 850 l 1
650 850 m 1
 750 850 l 1
 750 800 l 1
 650 800 l 1
 650 850 l 1
950 850 m 1
 950 750 l 1
 900 750 l 1
 900 800 l 1
 850 800 l 1
 850 850 l 1
 950 850 l 1
635 700 m 1
 635 645 l 1
 684 645 l 1
 684 155 l 1
 635 155 l 1
 635 100 l 1
 528 100 l 1
 528 155 l 1
 423 155 l 1
 423 100 l 1
 316 100 l 1
 316 204 l 1
 528 204 l 1
 635 204 l 1
 635 596 l 1
 528 596 l 1
 316 596 l 1
 316 645 l 1
 316 700 l 1
 423 700 l 1
 423 645 l 1
 528 645 l 1
 528 700 l 1
 635 700 l 1
420 471 m 1
 410 451 401 434 392 421 c 1
 577 421 l 1
 577 411 l 1
 577 385 l 1
 577 379 l 1
 389 379 l 1
 399 366 409 348 420 326 c 1
 398 326 l 1
 372 356 345 378 316 393 c 1
 316 404 l 1
 345 419 372 441 398 471 c 1
 420 471 l 1
EndSplineSet
Validated: 1
EndChar

StartChar: Stub.Flip
Encoding: 55 78912 55
Width: 1000
Flags: HW
LayerCount: 2
Fore
SplineSet
50 850 m 1
 150 850 l 1
 150 800 l 1
 100 800 l 1
 100 750 l 1
 50 750 l 1
 50 850 l 1
50 650 m 1
 100 650 l 1
 100 550 l 1
 50 550 l 1
 50 650 l 1
50 450 m 1
 100 450 l 1
 100 350 l 1
 50 350 l 1
 50 450 l 1
50 -50 m 1
 50 50 l 1
 100 50 l 1
 100 0 l 1
 150 0 l 1
 150 -50 l 1
 50 -50 l 1
250 0 m 1
 350 0 l 1
 350 -50 l 1
 250 -50 l 1
 250 0 l 1
450 0 m 1
 550 0 l 1
 550 -50 l 1
 450 -50 l 1
 450 0 l 1
950 -50 m 1
 850 -50 l 1
 850 0 l 1
 900 0 l 1
 900 50 l 1
 950 50 l 1
 950 -50 l 1
900 650 m 1
 950 650 l 1
 950 550 l 1
 900 550 l 1
 900 650 l 1
50 250 m 1
 100 250 l 1
 100 150 l 1
 50 150 l 1
 50 250 l 1
650 0 m 1
 750 0 l 1
 750 -50 l 1
 650 -50 l 1
 650 0 l 1
900 450 m 1
 950 450 l 1
 950 350 l 1
 900 350 l 1
 900 450 l 1
900 250 m 1
 950 250 l 1
 950 150 l 1
 900 150 l 1
 900 250 l 1
250 850 m 1
 350 850 l 1
 350 800 l 1
 250 800 l 1
 250 850 l 1
450 850 m 1
 550 850 l 1
 550 800 l 1
 450 800 l 1
 450 850 l 1
650 850 m 1
 750 850 l 1
 750 800 l 1
 650 800 l 1
 650 850 l 1
950 850 m 1
 950 750 l 1
 900 750 l 1
 900 800 l 1
 850 800 l 1
 850 850 l 1
 950 850 l 1
346 528 m 1
 385 528 l 1
 368 492 351 463 335 440 c 1
 665 440 l 1
 649 463 632 492 615 528 c 1
 654 528 l 1
 700 474 748 434 800 408 c 1
 800 389 l 1
 748 363 700 322 654 268 c 1
 615 268 l 1
 632 304 649 334 665 357 c 1
 335 357 l 1
 351 334 368 304 385 268 c 1
 346 268 l 1
 300 322 252 363 200 389 c 1
 200 408 l 1
 252 434 300 474 346 528 c 1
EndSplineSet
Validated: 1
EndChar
